<?xml version="1.0" encoding="UTF-8" standalone="no"?>
<svg
   version="1.1"
   x="0px"
   y="0px"
   width="500px"
   height="100px"
   viewBox="0 0 500 100"
   id="svg24"
   sodipodi:docname="01da13ff.svg"
   inkscape:version="1.2.2 (732a01da63, 2022-12-09)"
   xml:space="preserve"
   xmlns:inkscape="http://www.inkscape.org/namespaces/inkscape"
   xmlns:sodipodi="http://sodipodi.sourceforge.net/DTD/sodipodi-0.dtd"
   xmlns="http://www.w3.org/2000/svg"
   xmlns:svg="http://www.w3.org/2000/svg"><defs
     id="defs28" /><sodipodi:namedview
     id="namedview26"
     pagecolor="#ffffff"
     bordercolor="#000000"
     borderopacity="0.25"
     inkscape:showpageshadow="2"
     inkscape:pageopacity="0.0"
     inkscape:pagecheckerboard="0"
     inkscape:deskcolor="#d1d1d1"
     showgrid="false"
     inkscape:zoom="4.4168227"
     inkscape:cx="279.72597"
     inkscape:cy="54.2245"
     inkscape:window-width="2560"
     inkscape:window-height="1361"
     inkscape:window-x="-9"
     inkscape:window-y="-9"
     inkscape:window-maximized="1"
     inkscape:current-layer="svg24" /><style
     type="text/css"
     id="style2">
	    path, rect { fill: #FFFF; }
    </style><g
     aria-label="hakodume"
     id="text7511"
     style="font-size:66.6667px;font-family:'M PLUS 1p Edit';-inkscape-font-specification:'M PLUS 1p Edit';text-orientation:upright;stroke:#ffd627;stroke-width:0;stroke-linecap:round;stroke-linejoin:round;fill:#000000"><path
       d="M 7.9036331,6.4356155 H 16.570304 V 26.235626 h 0.133334 q 4.333335,-5.133336 10.666672,-5.133336 6.000003,0 8.800005,3.733335 2.866668,3.666669 2.866668,12.066673 V 56.435642 H 30.503645 V 37.768966 q 0,-5.733337 -1.333334,-7.733338 -1.333334,-2.066668 -4.800002,-2.066668 -3.133335,0 -5.46667,3.133335 -2.333335,3.066669 -2.333335,6.866671 V 56.435642 H 7.9036331 Z"
       id="path10566"
       style="fill:#000000" /><path
       d="m 61.903631,21.10229 q 7.933338,0 11.400007,3.133335 3.466668,3.066668 3.466668,10.000005 v 12.866674 q 0,4.733336 1.000001,9.333338 h -8.200005 q -0.4,-2.200001 -0.6,-5.133336 h -0.133333 q -1.866668,2.733335 -5.06667,4.266669 -3.133335,1.533334 -6.86667,1.533334 -4.866669,0 -7.800004,-2.666668 -2.866669,-2.733335 -2.866669,-7.533337 0,-5.800003 4.86667,-9.266672 4.933336,-3.533335 14.133341,-3.533335 h 2.866668 v -0.2 q 0,-3.533335 -1.400001,-4.933336 -1.400001,-1.400001 -5.000003,-1.400001 -6.533336,0 -12.33334,3.000002 l -1.266667,-6.46667 Q 54.436961,21.10229 61.903631,21.10229 Z m -7.533337,25.133347 q 0,2.133334 1.266667,3.333335 1.266668,1.200001 3.466669,1.200001 3.800002,0 6.400003,-2.466668 2.600002,-2.466668 2.600002,-6.200004 v -2.266668 h -2.866668 q -5.26667,0 -8.066671,1.800001 -2.800002,1.733335 -2.800002,4.600003 z"
       id="path10568"
       style="fill:#000000" /><path
       d="M 95.436998,41.102301 H 95.303665 V 56.435642 H 86.636993 V 6.4356155 h 8.666672 V 35.302298 h 0.133333 L 108.63701,21.768957 h 10.33333 l -16.46667,16.466676 16.80001,18.200009 h -10.33334 z"
       id="path10570"
       style="fill:#000000" /><path
       d="m 126.10366,25.968959 q 4.66667,-4.866669 12.60001,-4.866669 7.93333,0 12.6,4.866669 4.66667,4.86667 4.66667,13.133341 0,8.266671 -4.66667,13.13334 -4.66667,4.866669 -12.6,4.866669 -7.93334,0 -12.60001,-4.866669 -4.6,-4.866669 -4.6,-13.13334 0,-8.266671 4.6,-13.133341 z m 12.60001,24.533347 q 4.06667,0 6.33333,-2.866668 2.26667,-2.933335 2.26667,-8.533338 0,-5.600003 -2.26667,-8.466672 -2.26666,-2.933334 -6.33333,-2.933334 -4,0 -6.26667,2.933334 -2.26667,2.866669 -2.26667,8.466672 0,5.600003 2.26667,8.533338 2.26667,2.866668 6.26667,2.866668 z"
       id="path10572"
       style="fill:#000000" /><path
       d="M 194.37032,6.4356155 V 56.435642 h -8.06667 l -0.2,-4.866669 h -0.13334 q -3.93333,5.533336 -10.6,5.533336 -6.20001,0 -10.06668,-4.666669 -3.8,-4.733336 -3.8,-13.33334 0,-8.800005 3.66667,-13.400008 3.73334,-4.600002 10.20001,-4.600002 6.26667,0 10.2,5.133336 h 0.13334 V 6.4356155 Z M 169.83697,39.1023 q 0,5.400003 2.2,8.333337 2.26667,2.866669 5.8,2.866669 3.53334,0 5.66667,-2.800002 2.20001,-2.866668 2.20001,-8.066671 v -0.666667 q 0,-5.066669 -2.20001,-7.933337 -2.13333,-2.933335 -5.66667,-2.933335 -3.8,0 -5.93333,2.800001 -2.06667,2.800002 -2.06667,8.400005 z"
       id="path10574"
       style="fill:#000000" /><path
       d="m 212.10372,21.768957 v 20.666678 q 0,4.466669 1.2,6.133336 1.26667,1.600001 4.26667,1.600001 2.93334,0 5.33334,-2.933335 2.46667,-3.000001 2.46667,-7.000003 V 21.768957 h 8.66667 v 34.666685 h -8.13334 l -0.2,-4.866669 h -0.13333 q -2,2.600001 -4.93334,4.066669 -2.93333,1.466667 -6.06667,1.466667 -5.66667,0 -8.33334,-3.200001 -2.66666,-3.266669 -2.66666,-10.600006 V 21.768957 Z"
       id="path10576"
       style="fill:#000000" /><path
       d="m 243.23708,21.768957 h 8 l 0.2,4.666669 h 0.13334 q 3.86666,-5.333336 8.86667,-5.333336 3.26667,0 5.4,1.333334 2.13333,1.333334 3.66667,4.333336 h 0.13333 q 4.33334,-5.66667 10.20001,-5.66667 5.6,0 8.13334,3.133335 2.6,3.066668 2.6,10.400006 v 21.800011 h -8.40001 v -19.80001 q 0,-5.200003 -1.13333,-7.000004 -1.06667,-1.800001 -3.86667,-1.800001 -2.4,0 -4.2,2.533335 -1.8,2.533334 -1.8,6.26667 v 19.80001 h -8.40001 v -19.80001 q 0,-5.200003 -1.13333,-7.000004 -1.06667,-1.800001 -3.86667,-1.800001 -2.4,0 -4.2,2.533335 -1.8,2.533334 -1.8,6.26667 v 19.80001 h -8.53334 z"
       id="path10578"
       style="fill:#000000" /><path
       d="m 305.77049,36.302298 h 16.26667 q -0.0667,-4.333335 -2.2,-6.600003 -2.06667,-2.333335 -5.86667,-2.333335 -3.66667,0 -5.86667,2.333335 -2.13333,2.333334 -2.33333,6.600003 z m 0,5.933337 q 0.33333,3.933335 3,6.26667 2.73333,2.266668 6.86667,2.266668 4.93334,0 9.80001,-2.466668 l 2,6.133336 q -6.00001,2.666668 -12.66668,2.666668 -7.86667,0 -12.8,-4.866669 -4.86667,-4.866669 -4.86667,-13.13334 0,-8.400005 4.53333,-13.200007 4.53334,-4.800003 12.26668,-4.800003 7.73333,0 12,4.600002 4.33334,4.600003 4.33334,13.200008 0,1.666667 -0.2,3.333335 z"
       id="path10580"
       style="fill:#000000" /></g><g
     aria-label="JACKBOXコレクション"
     id="text7565"
     style="font-size:29.3333px;font-family:'M PLUS 1p Edit';-inkscape-font-specification:'M PLUS 1p Edit';text-orientation:upright;stroke:#ffd627;stroke-width:0;stroke-linecap:round;stroke-linejoin:round;fill:#000000"><path
       d="m 27.215271,63.405173 v 13.199985 q 0,4.634661 -1.994665,6.570659 -1.994664,1.935997 -6.511992,1.935997 -2.815997,0 -5.279994,-1.319998 l 0.821332,-3.37333 q 2.493331,1.378666 4.370662,1.378666 2.258664,0 3.28533,-1.290666 1.055998,-1.290665 1.055998,-4.487994 V 63.405173 Z"
       id="path10539"
       style="fill:#000000" /><path
       d="m 28.916592,84.818481 7.421325,-21.413308 h 4.399995 l 7.450658,21.413308 h -4.399995 l -1.525331,-5.16266 h -7.538658 l -1.554665,5.16266 z m 6.717326,-8.301323 h 5.69066 l -2.815997,-9.503989 h -0.05867 z"
       id="path10541"
       style="fill:#000000" /><path
       d="m 60.59654,66.426503 q -3.314663,0 -5.279994,2.082664 -1.965331,2.053331 -1.965331,5.60266 0,3.519996 2.023997,5.60266 2.023998,2.082665 5.221328,2.082665 2.66933,0 5.221327,-1.613332 l 1.231999,3.02133 q -2.962664,1.906664 -6.834659,1.906664 -5.015994,0 -8.037324,-2.962663 -3.02133,-2.991996 -3.02133,-8.037324 0,-5.074661 2.962663,-8.037324 2.962663,-2.962663 8.095991,-2.962663 3.871995,0 6.834659,1.906664 l -1.231999,3.02133 Q 63.26587,66.426503 60.59654,66.426503 Z"
       id="path10543"
       style="fill:#000000" /><path
       d="m 75.204498,63.405173 v 9.298656 h 0.05867 l 7.479992,-9.298656 h 4.781328 l -8.506657,10.266655 8.79999,11.146653 H 83.036489 L 75.263164,74.639826 h -0.05867 V 84.818481 H 71.097836 V 63.405173 Z"
       id="path10545"
       style="fill:#000000" /><path
       d="m 95.033794,72.029163 h 1.085332 q 2.727996,0 3.930664,-0.733333 1.232,-0.762665 1.232,-2.22933 0,-1.407999 -0.99734,-2.082665 -0.967995,-0.674666 -3.226659,-0.674666 -1.114665,0 -2.023997,0.176 z m 0,3.050663 v 6.658659 q 1.026665,0.176 2.199997,0.176 2.434664,0 3.549329,-0.879999 1.144,-0.909332 1.144,-2.75733 0,-1.642665 -1.29067,-2.405331 -1.290661,-0.791999 -4.311991,-0.791999 z m 10.823986,3.578663 q 0,3.226662 -2.112,4.839994 -2.11199,1.613331 -6.599989,1.613331 -3.255996,0 -6.159993,-0.439999 V 63.551839 q 2.75733,-0.439999 5.86666,-0.439999 8.213322,0 8.213322,5.367994 0,1.818664 -1.20266,3.138663 -1.20267,1.290665 -3.19733,1.671998 v 0.05867 q 2.40533,0.322667 3.78399,1.789332 1.408,1.437331 1.408,3.519996 z"
       id="path10547"
       style="fill:#000000" /><path
       d="m 110.75646,66.103836 q 2.93333,-2.991996 7.80266,-2.991996 4.86933,0 7.77333,2.991996 2.93333,2.962664 2.93333,8.007991 0,5.045328 -2.93333,8.037324 -2.904,2.962663 -7.77333,2.962663 -4.86933,0 -7.80266,-2.962663 -2.90399,-2.991996 -2.90399,-8.037324 0,-5.045327 2.90399,-8.007991 z m 3.05067,13.639985 q 1.76,1.994664 4.75199,1.994664 2.992,0 4.752,-1.994664 1.75999,-2.023998 1.75999,-5.631994 0,-3.607996 -1.75999,-5.60266 -1.76,-2.023998 -4.752,-2.023998 -2.99199,0 -4.75199,2.023998 -1.76,1.994664 -1.76,5.60266 0,3.607996 1.76,5.631994 z"
       id="path10549"
       style="fill:#000000" /><path
       d="m 138.85777,76.517158 h -0.0587 l -4.136,8.301323 h -4.57599 l 6.10132,-10.85332 -5.95466,-10.559988 h 4.60533 l 4.07733,8.007991 h 0.0587 l 4.07733,-8.007991 h 4.48799 l -5.95466,10.559988 6.10133,10.85332 h -4.69333 z"
       id="path10551"
       style="fill:#000000" /><path
       d="m 152.73241,63.903839 h 21.11998 v 20.709309 h -21.11998 v -3.519996 h 17.21865 V 67.423835 h -17.21865 z"
       id="path10553"
       style="fill:#000000" /><path
       d="m 187.46303,82.119818 q 5.57333,-0.557333 8.88799,-3.255996 3.31467,-2.727997 5.28,-8.242658 l 3.60799,1.407999 q -2.69866,7.391991 -7.74399,10.677321 -5.04532,3.285329 -13.55198,3.285329 h -0.704 V 62.613174 h 4.22399 z"
       id="path10555"
       style="fill:#000000" /><path
       d="m 228.52965,68.098501 h -9.76799 q -1.84799,4.693328 -5.80799,8.477323 l -2.78666,-2.375997 q 2.55199,-2.522664 4.16532,-5.77866 1.64267,-3.28533 2.05334,-6.687992 l 3.81332,0.205333 q -0.11733,1.231998 -0.41066,2.639997 h 12.93598 v 0.674666 q 0,10.237321 -4.66399,15.106649 -4.664,4.869328 -14.98932,5.719993 l -0.58666,-3.519996 q 8.24265,-0.821332 11.87998,-4.047995 3.66667,-3.226663 4.16533,-10.413321 z"
       id="path10557"
       style="fill:#000000" /><path
       d="m 241.23097,82.266484 q 9.23999,-0.791999 13.46398,-4.311995 4.224,-3.519996 5.69066,-11.73332 l 3.72533,0.616 q -1.672,9.474656 -6.80532,13.87465 -5.13333,4.370662 -15.48799,5.279994 z m -1.17333,-9.415989 0.704,-3.490662 q 3.84266,0.645332 9.67998,1.877331 l -0.73333,3.461329 q -5.25066,-1.114665 -9.65065,-1.847998 z m 1.34933,-7.098658 0.73333,-3.519996 q 4.664,0.762666 9.97332,1.847998 l -0.73333,3.519996 q -5.30933,-1.085333 -9.97332,-1.847998 z"
       id="path10559"
       style="fill:#000000" /><path
       d="m 271.85495,67.981167 h 17.65864 v 17.247981 h -17.65864 v -3.19733 h 13.87465 v -4.282662 h -12.58399 v -3.138663 h 12.58399 v -3.490662 h -13.87465 z"
       id="path10561"
       style="fill:#000000" /><path
       d="m 299.25223,66.338503 1.87733,-3.519996 q 4.42933,2.111997 9.09333,4.722661 l -1.96534,3.461329 q -3.93066,-2.199997 -9.00532,-4.663994 z m 19.79998,-0.704 3.72533,0.821333 q -1.55467,8.71199 -7.03999,13.405318 -5.48533,4.693328 -15.25332,5.543993 l -0.58667,-3.813329 q 8.50666,-0.821332 13.05332,-4.634661 4.576,-3.842662 6.10133,-11.322654 z"
       id="path10563"
       style="fill:#000000" /></g><g
     aria-label="箱"
     id="text9753"
     style="font-size:37.3333px;font-family:'M PLUS 1p Edit';-inkscape-font-specification:'M PLUS 1p Edit';text-orientation:upright;fill:#000000;stroke:#ffd627;stroke-width:0;stroke-linecap:round;stroke-linejoin:round"
     transform="matrix(0.94418966,0,0,0.94418966,25.779686,0.8725798)"><path
       d="m 485.08085,29.631368 v 2.725331 h 7.01866 v -2.725331 z m 0,-5.973328 v 2.725331 h 7.01866 V 23.65804 Z m 0,-3.247998 h 7.01866 v -2.725331 h -7.01866 z m 2.20267,-10.8266571 h -1.792 q -1.456,2.2773311 -3.17333,4.1066631 h 6.57066 q -0.672,-1.903998 -1.60533,-4.1066631 z m -7.98933,7.7653271 v 3.882663 h -4.816 q 2.576,2.949331 5.264,6.383995 l -2.688,3.247997 q -1.68,-2.799998 -2.8,-4.479996 v 10.75199 h -4.74133 v -9.258658 q -1.75466,3.471997 -4.14399,6.197328 l -2.8,-3.546664 q 3.99466,-4.479996 5.78666,-9.295992 h -4.44266 v -3.882663 h 5.59999 v -4.330663 h 3.54667 q -0.74667,-2.015999 -1.30667,-3.4346641 h -1.19466 q -1.82934,3.1359971 -4.33067,5.4879951 l -3.13599,-2.911997 q 1.94133,-1.978665 3.43466,-4.5173298 1.53067,-2.5386645 2.24,-5.0026624 l 4.47999,0.7093328 q -0.26133,1.0079991 -0.74666,2.239998 h 8.47466 v 2.837331 q 2.016,-2.9493309 2.83733,-5.7866618 l 4.47999,0.7093328 q -0.26133,1.0079991 -0.74666,2.239998 h 10.07999 v 3.9946633 h -5.488 q 0.56,1.4186651 1.12,2.9866641 l -2.91199,1.119999 h 6.60799 v 23.40798 h -4.85333 v -1.269332 h -7.01866 v 1.269332 h -4.74133 V 13.839381 l -2.20266,-2.053331 q 0.82133,-0.784 1.97866,-2.2026651 h -3.54666 q 0.82133,2.0159981 1.15733,2.9866641 l -3.472,1.306666 v 3.471997 z"
       id="path10536"
       style="fill:#000000" /></g><g
     aria-label="詰"
     id="text9753-6"
     style="font-size:37.3333px;font-family:'M PLUS 1p Edit';-inkscape-font-specification:'M PLUS 1p Edit';text-orientation:upright;fill:#000000;stroke:#ffd627;stroke-width:0;stroke-linecap:round;stroke-linejoin:round"
     transform="matrix(0.94418966,0,0,0.94418966,45.649481,3.4383059)"><path
       d="m 460.94181,67.414528 v 1.754665 h -4.74133 V 53.713206 h 18.66665 v 15.455987 h -4.96533 v -1.754665 z m -14.26133,0.821333 v 1.343999 h -4.14399 V 58.193203 h 11.31199 v 10.042658 z m 0,-3.583997 h 3.43467 V 61.7772 h -3.43467 z m 23.22132,-1.082666 v -5.786662 h -8.95999 v 5.786662 z m -27.36531,-23.18398 v -3.770664 h 11.19999 v 3.770664 z m -1.008,5.599995 v -4.031997 h 13.32799 v -3.210664 h 8.02666 v -3.546663 h 4.96533 v 3.546663 h 8.39999 v 4.106664 h -8.39999 v 4.143996 h 7.54132 v 3.882663 h -19.67465 v -3.882663 h 7.168 v -4.143996 h -7.91466 v 3.135997 z m 1.30666,5.301329 v -3.658664 h 10.82666 v 3.658664 z m 0,5.263995 v -3.62133 h 10.82666 v 3.62133 z"
       id="path10533"
       style="fill:#000000" /></g><g
     aria-label="め"
     id="text10528"
     style="font-size:37.3333px;font-family:'M PLUS 1p Edit';-inkscape-font-specification:'M PLUS 1p Edit';text-orientation:upright;fill:#000000;stroke:#ffd627;stroke-width:0;stroke-linecap:round;stroke-linejoin:round"
     transform="matrix(0.94418966,0,0,0.94418966,70.976917,6.3855768)"><path
       d="m 440.00663,72.370291 q 3.84534,1.567999 6.01067,4.741329 2.16533,3.135998 2.16533,7.242661 0,5.973328 -3.136,9.519992 -3.136,3.50933 -8.92266,4.293329 l -1.15733,-4.367996 q 4.144,-0.522666 6.30933,-2.911997 2.16533,-2.389332 2.16533,-6.533328 0,-2.463998 -1.26933,-4.40533 -1.26934,-1.941331 -3.62133,-3.023997 -3.50933,9.855991 -7.80266,14.821321 -4.29333,4.927995 -8.32533,4.927995 -2.94933,0 -4.928,-2.575997 -1.94133,-2.613332 -1.94133,-7.279994 0,-3.807997 1.60533,-6.981328 1.60534,-3.210664 4.48,-5.375995 -0.70933,-2.725331 -1.60533,-6.533328 l 4.47999,-0.895999 q 0.74667,3.135997 1.26934,5.189329 3.13599,-1.194666 6.83199,-1.194666 1.41867,0 2.98667,0.186667 0.74666,-2.463998 1.49333,-5.562662 l 4.47999,0.970666 q -0.37333,1.530665 -1.568,5.749328 z m -5.93599,3.434664 q -0.48533,-0.03733 -1.456,-0.03733 -3.09866,0 -5.59999,0.970666 1.19466,4.255997 2.68799,8.661326 2.31467,-3.994663 4.368,-9.594658 z m -7.54133,13.999988 q -2.016,-5.450662 -3.50933,-10.490658 -2.98666,2.986664 -2.98666,7.503994 0,2.501331 0.82133,3.882663 0.85867,1.343999 2.05333,1.343999 1.568,0 3.62133,-2.239998 z"
       id="path10530"
       style="fill:#000000" /></g><g
     stroke-width="2"
     fill="none"
     stroke-linecap="butt"
     id="g1216"
     transform="matrix(0.2415111,0,0,0.2415111,323.47496,-8.9791394)"><path
       stroke="#928f90"
       vector-effect="non-scaling-stroke"
       d="m 352.14,84.25 c -8.99,-7.74 -26.7,-15.02 -38.96,-16.37 -4.81,-0.54 -10.33,-1.86 -14.31,-2.34 -15,-1.78 -33.2,-2.87 -49.28,-0.13 -30.26,5.16 -64.55,23.3 -77.9,51.56 -2.82,5.98 -6.9,14.92 -7.87,21.34 q -3.02,19.89 1.99,43.12 c 0.89,4.15 4.66,16.7 9.58,18.92 q 6.67,3.02 13.61,5.38 c 29.18,9.93 58.24,20.64 87.88,29.07 a 1.67,1.65 -45.3 0 0 0.96,-0.01 q 16.02,-5.25 32.12,-10.29 c 17.03,-5.32 33.73,-12.08 50.65,-17.95 9.89,-3.43 14.08,-4.3 17.64,-13.57 q 13.03,-33.87 3.48,-66.86 c -3.88,-13.4 -12.32,-24.99 -21.99,-34.83"
       id="path1180" /><path
       stroke="#41332f"
       vector-effect="non-scaling-stroke"
       d="m 153.03,159.6 a 0.41,0.4 -9.4 0 0 -0.51,-0.36 l -43.06,11.65 a 0.97,0.96 77.2 0 0 -0.7,1.12 l 1.17,6.18 q 0.11,0.59 0.68,0.78 l 49.03,16.48 q 0.63,0.21 0.41,-0.42 -5.85,-17.25 -7.02,-35.43"
       id="path1182" /><path
       stroke="#41332f"
       vector-effect="non-scaling-stroke"
       d="m 392.71,169.92 q -1.7,14.16 -7.19,27.29 -0.18,0.44 0.27,0.28 l 49.67,-17.17 a 0.35,0.34 -47.8 0 0 -0.03,-0.66 L 393.2,169.58 a 0.4,0.4 0 0 0 -0.49,0.34"
       id="path1184" /><path
       stroke="#71635a"
       vector-effect="non-scaling-stroke"
       d="m 475.36,227.6 c -2.12,2.83 -3.89,5.34 -6.99,7.37 q -50.74,33.19 -101.6,66.42 -0.44,0.29 -0.07,0.67 l 11.03,11.38 a 3.77,3.76 -33.7 0 0 4.18,0.83 l 155.33,-66.78 a 1.5,1.49 55 0 0 0.43,-2.47 q -7.22,-6.71 -13.94,-13.09 -2.51,-2.39 -5.63,-3.98 c -10.36,-5.29 -20.08,-10.38 -29.86,-17.21 Q 467.2,196.04 446,181.35 q -0.38,-0.26 -0.82,-0.11 l -156.56,54.89 q -0.56,0.2 -0.12,0.61 26.77,25.39 53.7,50.62 c 5.31,4.98 13.39,8.36 19.8,12.07 a 0.9,0.88 -46.4 0 0 0.93,-0.03 l 112.09,-72.17 a 0.26,0.25 -87.7 0 1 0.34,0.37"
       id="path1186" /><path
       stroke="#71635a"
       vector-effect="non-scaling-stroke"
       d="m 90.71,269.61 a 0.2,0.2 0 0 1 -0.37,0.07 l -27.07,-53.4 q -0.21,-0.42 -0.67,-0.33 l -36.55,6.55 a 1.8,1.8 0 0 0 -0.85,3.14 q 29.36,24.79 59.59,50.36 2.69,2.28 5.91,3.7 40.66,17.93 81.44,35.56 2.2,0.95 4.69,-0.97 48.17,-37.09 96.29,-74.55 0.47,-0.36 -0.09,-0.55 L 110.06,183.2 q -0.53,-0.18 -0.98,0.14 l -42.69,29.9 q -0.38,0.27 -0.18,0.68 11.85,24.56 23.57,49.06 c 1.06,2.22 1.12,4.3 0.93,6.63"
       id="path1188" /><path
       stroke="#584a41"
       vector-effect="non-scaling-stroke"
       d="m 378.32,326.31 q -1.64,-1.05 -3.44,-3.22 c -4.37,-5.29 -9.35,-12.77 -15.13,-16.44 -6.55,-4.16 -14.18,-7.93 -19.83,-13.25 Q 311.83,266.95 283.6,240.56 a 0.36,0.36 0 0 0 -0.6,0.26 q -0.46,63.06 -0.89,126.18 c -0.05,7.82 4.04,16.65 6.62,23.89 q 0.28,0.8 1.08,1.07 l 54.1,18.33 q 0.53,0.18 1.03,-0.07 l 102.92,-52.13 q 0.39,-0.19 0.39,-0.62 v -60.21 q 0,-0.53 -0.49,-0.32 -32.61,14.15 -65.09,28.44 -0.66,0.29 -3.38,1.07 a 1.19,1.18 -36.4 0 1 -0.97,-0.14"
       id="path1190" /><path
       stroke="#584a41"
       vector-effect="non-scaling-stroke"
       d="m 226.21,405.94 54.17,-14.53 q 0.91,-0.25 0.61,-1.14 c -1.75,-5.37 -6.11,-13.92 -6.13,-19.49 q -0.28,-59.93 -0.43,-121.55 0,-1.65 -1.27,-0.61 -47.75,38.9 -96.21,78.59 c -3.05,2.5 -5.52,1.02 -8.67,-0.42 q -30.8,-14.03 -61.69,-27.91 -0.55,-0.25 -0.48,0.35 l 4.28,37.98 a 0.31,0.31 0 0 0 0.61,0.06 l 2.89,-9.86 q 0.72,-2.45 0.78,0.1 c 0.1,3.83 0.37,7.43 -0.63,11.25 q -2.52,9.59 -5.29,19.78 a 1.14,1.12 -69.9 0 0 0.6,1.31 l 42.45,20.58 q 0.7,0.34 0.68,-0.44 l -0.45,-24.96 q -0.01,-0.49 0.44,-0.29 l 59.74,27.47 a 1.37,1.35 12.7 0 1 0.79,1.23 v 26.2 q 0,0.57 0.52,0.82 21.02,9.88 42.56,18.6 c 6.17,2.5 11.93,2.83 18.42,3.39 q 0.5,0.04 0.49,-0.47 -0.33,-17.18 -0.87,-21.79 -0.87,-7.27 1.93,-14.29 a 0.46,0.45 -86.2 0 0 -0.53,-0.61 q -22.24,5.61 -44.84,10.58 -2.21,0.49 -4.44,0.36 -0.89,-0.06 -0.03,-0.29"
       id="path1192" /><path
       stroke="#836e51"
       vector-effect="non-scaling-stroke"
       d="m 156.34,382.43 a 0.33,0.33 0 0 0 0.19,0.29 l 52.75,25.57 a 0.33,0.33 0 0 0 0.47,-0.3 v -21.88 a 0.33,0.33 0 0 0 -0.19,-0.3 l -53.71,-25.48 a 0.33,0.33 0 0 0 -0.48,0.32 l 0.97,21.78"
       id="path1194" /><path
       stroke="#4f423b"
       vector-effect="non-scaling-stroke"
       d="m 340.5,413.06 -57.24,-19.35 a 0.46,0.46 0 0 0 -0.56,0.23 c -1.82,3.65 -2.84,6.9 -2.68,11.22 q 0.56,15.4 1.36,30.91 0.03,0.55 0.57,0.48 16.11,-2.07 32.27,-4.26 2.01,-0.27 3.64,-1.5 11.45,-8.6 22.72,-17.24 a 0.28,0.28 0 0 0 -0.08,-0.49"
       id="path1196" /><path
       stroke="#928f90"
       vector-effect="non-scaling-stroke"
       d="m 347.46,140.95 q -1.51,2.2 0.18,3.65 4.68,3.98 6.79,8.65 c 1.02,2.28 2.45,4.18 5.04,3.2 8.21,-3.11 -7.84,-21.52 -12.01,-15.5"
       id="path1198" /><path
       stroke="#928f90"
       vector-effect="non-scaling-stroke"
       d="m 205.79,145.5 c 4.04,-3.71 -1.07,-7.03 -4.67,-4.36 -2.39,1.77 -11.94,9.49 -8.55,13.06 1.7,1.79 4.82,1.42 6,-0.9 1.47,-2.88 4.83,-5.6 7.22,-7.8"
       id="path1200" /><path
       stroke="#928f90"
       vector-effect="non-scaling-stroke"
       d="m 214.93,159.94 c -0.3,2.4 -3.21,3.53 -4.76,1.2 q -0.31,-0.48 -0.7,-0.06 c -6.09,6.64 -4.33,18.22 5.65,19.97 17.57,3.09 20.52,-22.82 0.75,-21.98 a 1,1 0 0 0 -0.94,0.87"
       id="path1202" /><path
       stroke="#928f90"
       vector-effect="non-scaling-stroke"
       d="m 328.44,159.44 c 0.28,1.91 -1.27,3.16 -2.97,3.37 a 1.14,1.14 0 0 1 -1.24,-1.43 l 0.44,-1.65 a 0.18,0.18 0 0 0 -0.25,-0.21 c -14.37,7.21 -0.81,26.29 10.93,20.58 6.22,-3.03 8.49,-10.43 4.44,-16.34 -2.53,-3.69 -6.68,-4.75 -10.96,-4.77 q -0.46,-0.01 -0.39,0.45"
       id="path1204" /><path
       stroke="#928f90"
       vector-effect="non-scaling-stroke"
       d="m 274.21,195.27 c 1.4,6.54 7.27,11.87 14.16,9.79 5.2,-1.57 9.66,-4.31 11.55,-9.61 1.97,-5.53 0.47,-17.95 -8.16,-16.53 -5.89,0.97 -2.81,5.65 -0.08,7.88 q 0.39,0.32 0.52,0.81 2.01,7.7 -5.66,9.57 c -4.13,1.01 -7.22,-4.75 -8.62,-7.58 q -0.25,-0.49 -0.15,-1.02 c 0.62,-3.56 -4.89,-3.95 -6.77,-2.23 q -0.41,0.37 -0.49,0.91 c -0.59,4.05 -3.18,8.26 -7.53,8.69 -3.84,0.39 -8.32,-3.01 -8.44,-7.18 -0.11,-3.62 6.55,-7.78 3.03,-10.85 -3.41,-2.98 -8.55,3.29 -9.78,5.75 -3.72,7.49 0.5,14.69 7.19,18.83 10.07,6.22 12.98,-1.77 18.77,-7.37 q 0.36,-0.35 0.46,0.14"
       id="path1206" /><path
       stroke="#928f90"
       vector-effect="non-scaling-stroke"
       d="m 216.2,170.22 q 1.39,-2.31 -1.51,-3.4 -0.52,-0.19 -1.04,-0.03 -3.07,0.95 -4.06,4.05 a 1.33,1.32 40.5 0 0 0.08,0.99 q 1.15,2.22 3.56,1.39 a 0.78,0.77 57.9 0 1 0.82,0.19 c 1.17,1.23 2.18,3.08 4.02,1.42 q 0.33,-0.3 0.4,-0.75 0.38,-2.65 -1.94,-3.11 -0.7,-0.14 -0.33,-0.75"
       id="path1208" /><path
       stroke="#928f90"
       vector-effect="non-scaling-stroke"
       d="m 221.13,174.49 1.44,1.21 a 0.7,0.7 0 0 0 0.99,-0.09 l 0.49,-0.58 a 2.86,1.58 -50 0 0 0.62,-3.21 l -0.09,-0.07 a 2.86,1.58 -50 0 0 -3.05,1.17 l -0.48,0.58 a 0.7,0.7 0 0 0 0.08,0.99"
       id="path1210" /><path
       stroke="#928f90"
       vector-effect="non-scaling-stroke"
       d="m 327.25,173.23 c 0.32,3.06 5,1.91 5.2,-0.6 q 0.14,-1.71 -1.76,-2.26 -0.51,-0.15 -0.36,-0.66 c 0.75,-2.64 -0.97,-4.44 -3.48,-3.59 -3.04,1.02 -5.75,4.85 -1.94,6.95 a 0.89,0.85 -37.8 0 0 0.66,0.07 l 1.1,-0.31 q 0.52,-0.14 0.58,0.4"
       id="path1212" /><path
       stroke="#928f90"
       vector-effect="non-scaling-stroke"
       d="m 335.17,171.01 -1.14,2.69 a 0.65,0.65 0 0 0 0.35,0.85 l 0.15,0.07 a 2.2,1.99 22.9 0 0 2.8,-0.98 l 0.1,-0.22 a 2.2,1.99 22.9 0 0 -1.25,-2.69 l -0.16,-0.07 a 0.65,0.65 0 0 0 -0.85,0.35"
       id="path1214" /></g><path
     fill="#241f21"
     d="m 434.22713,62.191769 a 0.21252977,0.20528444 78.9 0 0 -0.12559,0.193208 q -0.0411,7.192199 -0.0918,14.379576 c -0.01,1.292082 0.10628,1.818581 -1.18822,2.475488 q -12.09972,6.141627 -24.18251,12.304985 -1.09647,0.557897 -2.07458,1.328317 -2.59624,2.043182 -5.21905,4.052555 -0.40816,0.313964 -0.91533,0.393672 -4.69498,0.731768 -9.22573,1.405587 a 1.2220462,1.2341217 57 0 1 -0.83563,-0.17389 c -0.69071,-0.434716 -1.32347,-0.99503 -2.17842,-1.098879 -1.03608,-0.127999 -2.02146,-0.169063 -3.00441,-0.550639 q -6.75507,-2.625228 -8.50844,-3.480175 -14.59451,-7.134239 -28.93785,-14.181533 a 1.2437821,1.2437821 0 0 1 -0.64484,-1.473219 c 0.34778,-1.159256 1.03608,-2.755646 0.9105,-3.955954 q -0.58687,-5.619957 -1.17857,-11.235095 -0.012,-0.12559 -0.13283,-0.173891 c -1.7075,-0.690722 -3.14931,-1.325894 -4.61045,-2.533456 Q 334.43718,53.5505 326.77402,47.256724 c -0.55789,-0.458872 -0.3985,-1.743715 -0.40091,-2.405454 a 0.34053066,0.33811555 62.5 0 1 0.0604,-0.193207 c 0.6883,-0.99744 1.45631,-1.603636 2.72908,-1.845142 q 3.75066,-0.710045 7.50857,-1.388692 c 1.16651,-0.212529 4.26026,-2.337827 4.96306,-3.306284 q 2.45859,-3.381159 4.93408,-6.750238 c 0.2101,-0.28981 0.65208,-0.61827 0.92256,-0.69555 q 6.44353,-1.895863 12.92568,-3.658895 0.12317,-0.03378 0.13283,-0.1594 c 0.15456,-1.627782 0.27774,-3.361832 0.75593,-4.830221 0.60135,-1.837898 1.66642,-3.311118 2.51171,-4.950977 q 0.59412,-1.154423 1.10855,-1.782354 c 2.73631,-3.34251 6.7454,-5.991888 10.71583,-7.7718265 3.62025,-1.6229541 7.72595,-3.2217571 12.13594,-2.9488504 q 1.00227,0.062794 2.21224,0.060376 c 3.8183,-0.00243 8.03749,0.3960781 11.70604,1.4973683 0.43473,0.1304164 0.93223,0.1231713 1.32349,0.2560023 q 2.24363,0.7607608 4.32305,1.8934491 c 1.37179,0.7486814 2.59625,1.8403142 3.869,2.8450002 q 1.3887,1.094046 2.40788,2.516543 c 0.65691,0.915328 1.56258,1.835486 2.09148,2.878815 1.97556,3.905235 3.43428,8.435979 3.13239,12.93292 q -0.01,0.130416 0.11351,0.173891 c 0.88152,0.311544 2.04803,0.485434 2.66387,0.63759 q 8.17515,2.043182 11.07812,2.840167 0.22219,0.06279 0.77283,0.441965 4.9389,3.424632 9.844,6.895141 1.58914,1.125448 3.28454,2.033531 c 1.70024,0.910491 3.9801,1.825818 5.36397,3.151713 q 2.077,1.985228 3.97044,3.854514 a 1.0650639,1.0674791 28.7 0 1 0.28982,0.99262 c -0.2077,0.934647 -0.2874,2.272613 -1.34281,2.731484 q -10.35841,4.51143 -20.65402,8.989046 z M 410.35617,13.06841 q -0.75593,-1.00227 -1.83549,-1.700239 c -2.17119,-1.8692973 -6.44835,-3.6274976 -9.40926,-3.9535354 -1.16167,-0.1304174 -2.49481,-0.449211 -3.45603,-0.5651373 -3.62267,-0.4298887 -8.01818,-0.693137 -11.90167,-0.031392 -7.30812,1.2461969 -15.58955,5.6272067 -18.81372,12.4523097 -0.68105,1.444234 -1.66643,3.603347 -1.90069,5.153849 q -0.72936,4.803654 0.48061,10.413958 c 0.21495,1.00227 1.12544,4.033235 2.31368,4.569389 q 1.61088,0.72936 3.28696,1.299327 c 7.04731,2.398209 14.0656,4.984788 21.22399,7.020728 a 0.39849332,0.40332352 44.7 0 0 0.23187,-0.0021 q 3.86899,-1.267936 7.75732,-2.485159 c 4.11294,-1.284828 8.14617,-2.917448 12.23254,-4.335122 2.38854,-0.82838 3.40049,-1.038493 4.26025,-3.277301 q 3.1469,-8.179984 0.84047,-16.147434 c -0.93707,-3.236762 -2.97542,-6.035878 -5.31083,-8.412346 z m -49.92275,16.497623 a 0.09660444,0.09901956 80.6 0 0 -0.12318,-0.08695 l -10.39946,2.813608 a 0.23426578,0.23185066 77.2 0 0 -0.16906,0.270492 l 0.28256,1.492538 q 0.0265,0.14249 0.16423,0.18838 l 11.84128,3.980104 q 0.15216,0.05069 0.0991,-0.10144 -1.41285,-4.166066 -1.69542,-8.556735 z m 57.88537,2.492393 q -0.41057,3.419798 -1.73647,6.590835 -0.0434,0.106272 0.0652,0.06763 l 11.99587,-4.146744 a 0.08211377,0.08452888 42.2 0 0 -0.008,-0.1594 L 418.4359,31.976324 a 0.09660444,0.09660444 0 0 0 -0.11834,0.0821 z m 19.9609,13.930362 c -0.512,0.683478 -0.93948,1.289667 -1.68816,1.779936 q -12.25428,8.015753 -24.53753,16.041164 -0.10628,0.07005 -0.0168,0.161815 l 2.66387,2.748399 a 0.9080817,0.91049689 56.3 0 0 1.00951,0.200449 l 37.51387,-16.128107 a 0.36226666,0.35985155 55 0 0 0.10384,-0.596535 q -1.74372,-1.620542 -3.36667,-3.161376 -0.60619,-0.577212 -1.3597,-0.961217 c -2.50206,-1.277591 -4.84955,-2.506882 -7.21154,-4.156401 q -5.08139,-3.550218 -10.20143,-7.098016 -0.0917,-0.06278 -0.19802,-0.02655 l -37.81099,13.256544 q -0.13524,0.04831 -0.0289,0.147318 6.46524,6.131967 12.96914,12.225295 c 1.28241,1.202725 3.23382,2.019031 4.78192,2.915043 a 0.21252977,0.21736 43.6 0 0 0.2246,-0.0067 l 27.07098,-17.429868 a 0.06037778,0.06279288 2.3 0 1 0.0821,0.08936 z m -92.89725,10.145881 a 0.04830222,0.04830222 0 0 1 -0.0894,0.01687 l -6.53771,-12.896691 q -0.0507,-0.101429 -0.16182,-0.0797 l -8.82722,1.581898 a 0.43471999,0.43471999 0 0 0 -0.2053,0.758351 q 7.09077,5.987058 14.39165,12.162499 0.64966,0.550644 1.42733,0.89359 9.81985,4.330299 19.66866,8.588142 0.53133,0.229428 1.1327,-0.234266 11.63359,-8.957657 23.25509,-18.004662 0.11353,-0.08695 -0.0217,-0.132832 L 350.05571,35.265674 q -0.12801,-0.04347 -0.2367,0.03381 l -10.31012,7.221173 q -0.0917,0.06517 -0.0434,0.164231 2.86192,5.931513 5.69243,11.848536 c 0.25599,0.536152 0.27048,1.038499 0.2246,1.60122 z m 69.46101,13.693686 q -0.39609,-0.253598 -0.83081,-0.777668 c -1.05538,-1.277598 -2.25813,-3.084103 -3.65406,-3.970448 -1.5819,-1.004687 -3.42463,-1.915183 -4.78915,-3.200025 q -6.78406,-6.387963 -13.60191,-12.761442 a 0.08694399,0.08694399 0 0 0 -0.14492,0.0628 q -0.11108,15.229689 -0.21494,30.473876 c -0.0119,1.888612 0.97572,4.021157 1.59881,5.769696 q 0.0677,0.193204 0.26083,0.258417 l 13.06574,4.426895 q 0.12801,0.04344 0.24877,-0.01684 l 24.85632,-12.58997 q 0.0942,-0.04595 0.0942,-0.14974 v -14.54139 q 0,-0.127998 -0.11834,-0.07731 -7.87568,3.41739 -15.71995,6.868576 -0.1594,0.07005 -0.81631,0.258415 a 0.2849831,0.28739821 53.6 0 1 -0.23426,-0.03377 z m -36.73626,19.231528 13.08266,-3.509163 q 0.21978,-0.06037 0.14732,-0.275319 c -0.42264,-1.296911 -1.47564,-3.361833 -1.48047,-4.707053 q -0.0677,-14.473757 -0.10383,-29.355676 0,-0.39849 -0.30672,-0.147317 -11.53215,9.394777 -23.23579,18.980362 c -0.73659,0.603768 -1.33314,0.246331 -2.0939,-0.101451 q -7.43854,-3.388392 -14.89882,-6.740567 -0.13283,-0.06038 -0.11592,0.08457 l 1.03366,9.172592 a 0.07486845,0.07486845 0 0 0 0.14734,0.01451 l 0.69797,-2.381295 q 0.17388,-0.591694 0.18837,0.02419 c 0.0242,0.924989 0.0894,1.79443 -0.15215,2.717 q -0.60862,2.316102 -1.27761,4.777085 a 0.27049243,0.27532266 20.1 0 0 0.14492,0.316393 l 10.25214,4.970288 q 0.16906,0.08215 0.16423,-0.106258 L 360.1919,76.76465 q -0.002,-0.118342 0.10628,-0.07005 l 14.42787,6.634309 a 0.33087021,0.32604 12.7 0 1 0.19079,0.297061 v 6.327583 q 0,0.137665 0.12559,0.19804 5.07656,2.386134 10.27872,4.492109 c 1.49012,0.603779 2.88122,0.683477 4.44862,0.818722 q 0.12076,0.0097 0.11834,-0.113504 -0.0797,-4.149166 -0.21011,-5.26254 -0.21011,-1.755776 0.4661,-3.451186 a 0.10868001,0.11109511 3.8 0 0 -0.128,-0.147321 q -5.37119,1.354875 -10.82936,2.555185 -0.53372,0.118343 -1.07229,0.08698 -0.21494,-0.01451 -0.008,-0.07005 z M 361.23281,83.38195 a 0.07969866,0.07969866 0 0 0 0.0459,0.07005 l 12.73971,6.175434 a 0.07969866,0.07969866 0 0 0 0.11353,-0.07247 v -5.28427 a 0.07969866,0.07969866 0 0 0 -0.0459,-0.07247 l -12.97156,-6.153702 a 0.07969866,0.07969866 0 0 0 -0.11592,0.07731 z m 44.47668,7.397493 -13.82409,-4.673236 a 0.11109511,0.11109511 0 0 0 -0.13524,0.05553 c -0.43955,0.881517 -0.68588,1.666431 -0.64725,2.709762 q 0.13524,3.71926 0.32846,7.465107 0.008,0.132828 0.13765,0.115924 3.89074,-0.499929 7.79356,-1.028838 0.48543,-0.06521 0.8791,-0.362265 2.76531,-2.076996 5.48714,-4.163651 a 0.06762312,0.06762312 0 0 0 -0.0194,-0.118342 z"
     id="path1218"
     style="stroke-width:0.241512" /><path
     fill="#ffffff"
     d="m 408.52068,11.368171 q 0.82114,1.084383 1.83549,1.700239 c 2.33541,2.376467 4.37376,5.175583 5.31083,8.411831 q 2.30643,7.967454 -0.84047,16.147433 c -0.85976,2.238808 -1.87171,2.448923 -4.26025,3.277309 -4.08637,1.417669 -8.1196,3.050287 -12.23254,4.335116 q -3.88833,1.217222 -7.75732,2.485158 a 0.39849332,0.40332352 44.7 0 1 -0.23187,0.0021 c -7.15839,-2.035987 -14.17668,-4.622566 -21.22399,-7.020774 q -1.67608,-0.569967 -3.28696,-1.299328 c -1.18824,-0.536153 -2.09873,-3.567119 -2.31368,-4.56939 q -1.20997,-5.610304 -0.48061,-10.413959 c 0.23426,-1.5505 1.21964,-3.709612 1.90069,-5.153847 3.22417,-6.825104 11.5056,-11.2061154 18.81372,-12.4523123 3.88349,-0.6617403 8.279,-0.3984929 11.90167,0.031392 0.96122,0.1159284 2.29436,0.4347222 3.45603,0.5651395 2.96091,0.3260377 7.23807,2.0842381 9.40926,3.9535348 z m -1.13026,13.693676 q -0.36469,0.531329 0.0434,0.881518 1.13027,0.961213 1.63986,2.08907 c 0.24635,0.550647 0.59171,1.00952 1.21723,0.772837 1.9828,-0.751098 -1.89345,-5.197318 -2.90057,-3.743425 z m -34.21488,1.098879 c 0.9757,-0.896004 -0.25842,-1.697821 -1.12787,-1.052989 -0.5772,0.427479 -2.88365,2.29194 -2.0649,3.154135 0.41056,0.432307 1.16408,0.342949 1.44905,-0.21736 0.35503,-0.695551 1.16651,-1.352463 1.74372,-1.883786 z m 2.2074,3.48742 c -0.0724,0.579627 -0.77525,0.852533 -1.14959,0.289816 q -0.0748,-0.11593 -0.16905,-0.01448 c -1.47081,1.603635 -1.04574,4.400333 1.36453,4.822977 4.24335,0.746269 4.95581,-5.511282 0.18114,-5.308418 a 0.2415111,0.2415111 0 0 0 -0.22703,0.210121 z m 27.41394,-0.120755 c 0.0677,0.461286 -0.30673,0.763174 -0.7173,0.813893 a 0.27532266,0.27532266 0 0 1 -0.29947,-0.345362 l 0.10626,-0.398495 a 0.04347201,0.04347201 0 0 0 -0.0604,-0.05071 c -3.47053,1.741295 -0.19564,6.349329 2.6397,4.9703 1.5022,-0.731781 2.05043,-2.518965 1.07232,-3.946291 -0.61104,-0.89118 -1.6133,-1.14718 -2.64697,-1.152011 q -0.1111,-0.0024 -0.0942,0.10868 z m -13.09716,8.653345 c 0.33812,1.579482 1.75579,2.866734 3.41981,2.364394 1.25585,-0.379168 2.33299,-1.040916 2.78945,-2.32092 0.47577,-1.335563 0.1135,-4.335126 -1.97074,-3.992183 -1.4225,0.234264 -0.67865,1.364538 -0.0194,1.903106 q 0.0943,0.07729 0.12559,0.19563 0.48543,1.859633 -1.36696,2.311259 c -0.99744,0.243927 -1.74371,-1.14718 -2.08183,-1.830657 q -0.0604,-0.11834 -0.0363,-0.246344 c 0.14974,-0.859777 -1.18097,-0.953964 -1.63503,-0.538567 q -0.0991,0.08935 -0.11834,0.219775 c -0.14249,0.978124 -0.76801,1.994881 -1.81857,2.098731 -0.92741,0.0942 -2.00938,-0.726946 -2.03836,-1.734048 -0.0265,-0.874269 1.58191,-1.878953 0.73178,-2.620397 -0.82355,-0.719705 -2.06491,0.794574 -2.36198,1.388691 -0.89842,1.808912 0.12077,3.547797 1.73646,4.547652 2.43202,1.502201 3.13482,-0.427467 4.53317,-1.779936 q 0.0871,-0.08453 0.11109,0.03381 z"
     id="path1220"
     style="stroke-width:0.241512" /><path
     fill="#241f21"
     d="m 407.39042,25.061847 c 1.00709,-1.453893 4.88335,2.992327 2.90055,3.743425 -0.62552,0.236683 -0.97087,-0.22219 -1.21723,-0.772837 q -0.50958,-1.127857 -1.63985,-2.08907 -0.40816,-0.350189 -0.0434,-0.881518 z"
     id="path1222"
     style="stroke-width:0.241512" /><path
     fill="#241f21"
     d="m 372.04767,25.107737 c 0.86945,-0.644832 2.10357,0.156985 1.12787,1.052989 -0.57721,0.531323 -1.38869,1.188235 -1.74372,1.883786 -0.28497,0.560309 -1.03849,0.649667 -1.44905,0.21736 -0.81875,-0.862195 1.4877,-2.726656 2.0649,-3.154135 z"
     id="path1224"
     style="stroke-width:0.241512" /><path
     fill="#241f21"
     d="m 374.23335,29.937962 c 0.37434,0.562717 1.07715,0.289811 1.14959,-0.289816 a 0.2415111,0.2415111 0 0 1 0.22703,-0.210115 c 4.77467,-0.20287 4.06221,6.054685 -0.18114,5.308419 -2.41027,-0.422649 -2.83534,-3.219343 -1.36453,-4.822983 q 0.0943,-0.101429 0.16905,0.01448 z m 1.45632,2.192919 q 0.33569,-0.55789 -0.36469,-0.821135 -0.12558,-0.0459 -0.25117,-0.0073 -0.74145,0.229437 -0.98052,0.97812 a 0.32120978,0.31879465 40.5 0 0 0.0194,0.239095 q 0.27775,0.536157 0.85978,0.335704 a 0.18837866,0.18596355 57.9 0 1 0.19803,0.04591 c 0.28258,0.297054 0.52652,0.743856 0.97089,0.342944 q 0.0797,-0.07245 0.0966,-0.181131 0.0918,-0.640004 -0.46853,-0.751104 -0.16906,-0.03379 -0.0797,-0.181128 z m 1.19065,1.03125 0.34778,0.292233 a 0.16905777,0.16905777 0 0 0 0.23909,-0.02173 l 0.11834,-0.140072 a 0.38158756,0.6907218 40 0 0 0.14973,-0.775252 l -0.0216,-0.01689 a 0.38158756,0.6907218 40 0 0 -0.73661,0.28257 l -0.11593,0.14008 a 0.16905777,0.16905777 0 0 0 0.0193,0.239089 z"
     id="path1226"
     style="stroke-width:0.241512" /><path
     fill="#241f21"
     d="m 402.07958,30.341284 c 0.41057,-0.05072 0.78491,-0.352607 0.7173,-0.813893 q -0.0168,-0.111094 0.0943,-0.108681 c 1.03367,0.0049 2.03594,0.26083 2.64696,1.152011 0.97813,1.427326 0.42989,3.21451 -1.0723,3.946292 -2.83534,1.379029 -6.11024,-3.229007 -2.63971,-4.970301 a 0.04347201,0.04347201 0 0 1 0.0604,0.05071 l -0.10626,0.398496 a 0.27532266,0.27532266 0 0 0 0.29946,0.345361 z m 0.42988,2.516547 c 0.0773,0.739026 1.20757,0.461287 1.25588,-0.144906 q 0.0338,-0.412984 -0.42507,-0.54582 -0.12316,-0.03625 -0.087,-0.159393 c 0.18114,-0.637591 -0.23425,-1.072313 -0.84045,-0.867024 -0.73418,0.24634 -1.3887,1.171329 -0.46853,1.678499 a 0.20528444,0.21494487 52.2 0 0 0.1594,0.01689 l 0.26566,-0.07487 q 0.12558,-0.03378 0.14008,0.0966 z m 1.91279,-0.536156 -0.27534,0.649667 a 0.15698223,0.15698223 0 0 0 0.0847,0.205283 l 0.0362,0.01689 a 0.53132441,0.4806071 22.9 0 0 0.67621,-0.236683 l 0.0242,-0.05314 a 0.53132441,0.4806071 22.9 0 0 -0.3019,-0.649663 l -0.0386,-0.01689 a 0.15698223,0.15698223 0 0 0 -0.20528,0.08454 z"
     id="path1228"
     style="stroke-width:0.241512" /><path
     fill="#5e473c"
     d="m 360.43342,29.566033 q 0.28256,4.39067 1.69541,8.556735 0.0532,0.152156 -0.0991,0.101441 l -11.84128,-3.980105 q -0.13767,-0.04591 -0.16423,-0.18838 l -0.28256,-1.492538 a 0.23426578,0.23185066 77.2 0 1 0.16905,-0.270492 l 10.39946,-2.813607 a 0.09660444,0.09901956 80.6 0 1 0.12319,0.08695 z"
     id="path1230"
     style="stroke-width:0.241512" /><path
     fill="#ffffff"
     d="m 402.3694,32.761227 -0.26566,0.07487 a 0.20528444,0.21494487 52.2 0 1 -0.1594,-0.01689 c -0.92016,-0.507175 -0.26566,-1.432163 0.46853,-1.678505 0.60621,-0.205287 1.02159,0.229434 0.84046,0.867024 q -0.0362,0.123171 0.087,0.159395 0.45888,0.132834 0.42507,0.545819 c -0.0482,0.606192 -1.17858,0.883931 -1.25587,0.144905 q -0.0145,-0.130415 -0.14008,-0.09661 z"
     id="path1232"
     style="stroke-width:0.241512" /><path
     fill="#ffffff"
     d="m 375.76936,32.312017 q 0.56032,0.111093 0.46853,0.751095 -0.0169,0.108682 -0.0966,0.181137 c -0.44437,0.400908 -0.68831,-0.0459 -0.97088,-0.342944 a 0.18837866,0.18596355 57.9 0 0 -0.19803,-0.04591 q -0.58204,0.200452 -0.85979,-0.335704 a 0.32120978,0.31879465 40.5 0 1 -0.0193,-0.239096 q 0.23908,-0.748683 0.98053,-0.978115 0.12558,-0.03867 0.25118,0.0073 0.70037,0.263244 0.36467,0.821135 -0.0894,0.147323 0.0797,0.181135 z"
     id="path1234"
     style="stroke-width:0.241512" /><path
     fill="#5e473c"
     d="m 418.31879,32.058426 a 0.09660444,0.09660444 0 0 1 0.11834,-0.0821 l 10.19902,2.434427 a 0.08211377,0.08452888 42.2 0 1 0.008,0.159399 l -11.99664,4.146741 q -0.10869,0.03864 -0.0652,-0.06763 1.32589,-3.171037 1.73647,-6.590834 z"
     id="path1236"
     style="stroke-width:0.241512" /><path
     fill="#ffffff"
     d="m 404.42225,32.321675 a 0.15698223,0.15698223 0 0 1 0.20527,-0.08453 l 0.0386,0.01689 a 0.53132441,0.4806071 22.9 0 1 0.30189,0.649663 l -0.0242,0.05314 a 0.53132441,0.4806071 22.9 0 1 -0.67624,0.236683 l -0.0362,-0.01689 a 0.15698223,0.15698223 0 0 1 -0.0845,-0.205284 z"
     id="path1238"
     style="stroke-width:0.241512" /><path
     fill="#ffffff"
     d="m 376.88032,33.162131 a 0.16905777,0.16905777 0 0 1 -0.0194,-0.239095 l 0.11592,-0.140074 a 0.38158756,0.6907218 40 0 1 0.73661,-0.282571 l 0.0216,0.01689 a 0.38158756,0.6907218 40 0 1 -0.14974,0.77525 l -0.11834,0.140074 a 0.16905777,0.16905777 0 0 1 -0.2391,0.02172 z"
     id="path1240"
     style="stroke-width:0.241512" /><path
     fill="#241f21"
     d="m 389.58863,38.146922 c -1.39834,1.352469 -2.10115,3.282137 -4.53316,1.779936 -1.61572,-0.999855 -2.6349,-2.73874 -1.73646,-4.547652 0.29704,-0.594117 1.53841,-2.108396 2.36196,-1.388691 0.85012,0.741444 -0.75834,1.746128 -0.73178,2.620397 0.0289,1.007102 1.11096,1.828242 2.03836,1.734048 1.05059,-0.103853 1.67609,-1.120607 1.81859,-2.098731 q 0.0194,-0.130417 0.11833,-0.219775 c 0.45404,-0.415397 1.78478,-0.32121 1.63504,0.538567 q -0.0242,0.128004 0.0362,0.246344 c 0.33812,0.683477 1.08439,2.074584 2.08184,1.830657 q 1.85239,-0.451626 1.36694,-2.311259 -0.0314,-0.118347 -0.12557,-0.19563 c -0.65934,-0.538568 -1.40319,-1.668842 0.0194,-1.903106 2.08424,-0.342943 2.44649,2.65662 1.97071,3.992183 -0.45644,1.280004 -1.53359,1.941752 -2.78945,2.32092 -1.664,0.50234 -3.08167,-0.784912 -3.41979,-2.364394 q -0.0242,-0.118341 -0.11111,-0.03381 z"
     id="path1242"
     style="stroke-width:0.241512" /><path
     fill="#bea693"
     d="m 438.27969,45.988788 a 0.06037778,0.06279288 2.3 0 0 -0.0821,-0.08935 l -27.07097,17.429858 a 0.21252977,0.21736 43.6 0 1 -0.22461,0.0067 c -1.54809,-0.89601 -3.4995,-1.712311 -4.78192,-2.915036 q -6.50389,-6.093329 -12.96914,-12.225288 -0.10627,-0.09903 0.0289,-0.147324 l 37.81106,-13.25611 q 0.10627,-0.03625 0.19804,0.02655 5.12003,3.547801 10.20142,7.098014 c 2.36198,1.649519 4.70947,2.878811 7.21152,4.156407 q 0.75351,0.384 1.35971,0.961212 1.62295,1.540839 3.36667,3.161383 a 0.36226666,0.35985155 55 0 1 -0.10383,0.596527 l -37.51392,16.128105 a 0.9080817,0.91049689 56.3 0 1 -1.00953,-0.200441 l -2.66388,-2.748392 q -0.0894,-0.09183 0.0169,-0.161805 12.28325,-8.025418 24.53752,-16.04117 c 0.74869,-0.490271 1.17616,-1.09646 1.68817,-1.779937 z"
     id="path1244"
     style="stroke-width:0.241512" /><path
     fill="#bea693"
     d="m 345.38244,56.134669 c 0.0459,-0.562721 0.0314,-1.065061 -0.2246,-1.601214 q -2.83051,-5.917029 -5.69242,-11.848536 -0.0482,-0.09903 0.0434,-0.16423 l 10.31012,-7.221181 q 0.10868,-0.07729 0.23668,-0.03381 l 39.35906,13.522201 q 0.13524,0.04592 0.0217,0.132833 -11.62151,9.047005 -23.2551,18.004653 -0.60136,0.463703 -1.13268,0.234267 -9.84883,-4.257834 -19.66866,-8.588134 -0.77768,-0.342947 -1.42734,-0.893598 -7.30088,-6.175434 -14.39165,-12.162492 a 0.43471999,0.43471999 0 0 1 0.20529,-0.75835 l 8.82722,-1.5819 q 0.1111,-0.02171 0.16181,0.0797 l 6.5377,12.89669 a 0.04830222,0.04830222 0 0 0 0.0894,-0.01687 z"
     id="path1246"
     style="stroke-width:0.241512" /><path
     fill="#8b7561"
     d="m 415.07771,69.862161 q 0.65691,-0.188374 0.81632,-0.258416 7.84426,-3.451186 15.71994,-6.868576 0.11834,-0.0507 0.11834,0.07731 v 14.541379 q 0,0.103852 -0.0942,0.14974 L 406.78179,90.09357 q -0.12076,0.06037 -0.24877,0.01684 l -13.06574,-4.426885 q -0.1932,-0.06521 -0.26084,-0.258417 c -0.62309,-1.748538 -1.61088,-3.881084 -1.5988,-5.769696 q 0.10385,-15.244187 0.21495,-30.473877 a 0.08694399,0.08694399 0 0 1 0.14491,-0.0628 q 6.81785,6.373479 13.6019,12.761442 c 1.36454,1.284842 3.20727,2.195336 4.78916,3.200024 1.39593,0.886345 2.59868,2.69285 3.65406,3.970448 q 0.43472,0.52407 0.8308,0.777667 a 0.2849831,0.28739821 53.6 0 0 0.23427,0.03377 z"
     id="path1248"
     style="stroke-width:0.241512" /><path
     fill="#8b7561"
     d="m 378.11444,89.129924 q 0.53857,0.03135 1.07229,-0.08698 5.45817,-1.200318 10.82936,-2.555195 a 0.10868001,0.11109511 3.8 0 1 0.128,0.147321 q -0.67621,1.69541 -0.4661,3.451196 0.13041,1.113364 0.21011,5.26253 0.002,0.12317 -0.11834,0.113514 c -1.5674,-0.135255 -2.9585,-0.214944 -4.44863,-0.818732 q -5.20215,-2.105975 -10.27871,-4.492099 -0.1256,-0.06037 -0.1256,-0.19804 v -6.327596 a 0.33087021,0.32604 12.7 0 0 -0.19078,-0.297061 l -14.42787,-6.63431 q -0.10868,-0.04828 -0.10628,0.07005 l 0.10869,6.028113 q 0.005,0.188375 -0.16423,0.106268 l -10.25214,-4.970297 a 0.27049243,0.27532266 20.1 0 1 -0.14492,-0.316384 q 0.66899,-2.461002 1.27761,-4.777084 c 0.2415,-0.92258 0.17628,-1.792012 0.15215,-2.717001 q -0.0145,-0.615862 -0.18837,-0.02419 l -0.69797,2.381305 a 0.07486845,0.07486845 0 0 1 -0.14734,-0.01451 l -1.03366,-9.172591 q -0.0168,-0.144903 0.11592,-0.08457 7.46029,3.352176 14.89882,6.740567 c 0.76076,0.347791 1.35731,0.705219 2.0939,0.101452 q 11.70364,-9.585586 23.23579,-18.980369 0.30672,-0.251174 0.30672,0.147323 0.0363,14.88192 0.10383,29.355676 c 0.005,1.345221 1.05782,3.410143 1.48047,4.707052 q 0.0724,0.214945 -0.14732,0.275329 l -13.08266,3.509155 q -0.20769,0.05553 0.008,0.07005 z"
     id="path1250"
     style="stroke-width:0.241512" /><path
     fill="#e2bd81"
     d="m 361.23281,83.38195 -0.23427,-5.26011 a 0.07969866,0.07969866 0 0 1 0.11593,-0.07731 l 12.97156,6.153702 a 0.07969866,0.07969866 0 0 1 0.0459,0.07247 v 5.284271 a 0.07969866,0.07969866 0 0 1 -0.11352,0.07247 l -12.7397,-6.175436 a 0.07969866,0.07969866 0 0 1 -0.0459,-0.07005 z"
     id="path1252"
     style="stroke-width:0.241512" /><path
     fill="#796555"
     d="m 405.70949,90.779443 a 0.06762312,0.06762312 0 0 1 0.0194,0.118342 q -2.72183,2.086655 -5.48713,4.163651 -0.39368,0.297052 -0.87911,0.362265 -3.90282,0.528909 -7.79357,1.028838 -0.13041,0.01684 -0.13765,-0.115925 -0.1932,-3.745847 -0.32846,-7.465115 c -0.0386,-1.043322 0.20771,-1.828237 0.64726,-2.709753 a 0.11109511,0.11109511 0 0 1 0.13524,-0.05554 z"
     id="path1254"
     style="stroke-width:0.241512" /></svg>
