<?xml version="1.0" encoding="UTF-8" standalone="no"?>
<svg
   version="1.1"
   x="0px"
   y="0px"
   width="500px"
   height="100px"
   viewBox="0 0 500 100"
   id="svg24"
   sodipodi:docname="01da13ff.svg"
   inkscape:version="1.2.2 (732a01da63, 2022-12-09)"
   xml:space="preserve"
   xmlns:inkscape="http://www.inkscape.org/namespaces/inkscape"
   xmlns:sodipodi="http://sodipodi.sourceforge.net/DTD/sodipodi-0.dtd"
   xmlns="http://www.w3.org/2000/svg"
   xmlns:svg="http://www.w3.org/2000/svg"><defs
     id="defs28" /><sodipodi:namedview
     id="namedview26"
     pagecolor="#ffffff"
     bordercolor="#000000"
     borderopacity="0.25"
     inkscape:showpageshadow="2"
     inkscape:pageopacity="0.0"
     inkscape:pagecheckerboard="0"
     inkscape:deskcolor="#d1d1d1"
     showgrid="false"
     inkscape:zoom="6.2463305"
     inkscape:cx="329.39339"
     inkscape:cy="64.437832"
     inkscape:window-width="2560"
     inkscape:window-height="1361"
     inkscape:window-x="-9"
     inkscape:window-y="-9"
     inkscape:window-maximized="1"
     inkscape:current-layer="svg24" /><style
     type="text/css"
     id="style2">
	    path, rect { fill: #FFFF; }
    </style><g
     aria-label="hakodume"
     id="text7511"
     style="font-size:66.6667px;font-family:'M PLUS 1p Edit';-inkscape-font-specification:'M PLUS 1p Edit';text-orientation:upright;stroke:#ffd627;stroke-width:0;stroke-linecap:round;stroke-linejoin:round;fill:#ffffff"><path
       d="M 7.9036331,6.4356155 H 16.570304 V 26.235626 h 0.133334 q 4.333335,-5.133336 10.666672,-5.133336 6.000003,0 8.800005,3.733335 2.866668,3.666669 2.866668,12.066673 V 56.435642 H 30.503645 V 37.768966 q 0,-5.733337 -1.333334,-7.733338 -1.333334,-2.066668 -4.800002,-2.066668 -3.133335,0 -5.46667,3.133335 -2.333335,3.066669 -2.333335,6.866671 V 56.435642 H 7.9036331 Z"
       id="path10566"
       style="fill:#ffffff" /><path
       d="m 61.903631,21.10229 q 7.933338,0 11.400007,3.133335 3.466668,3.066668 3.466668,10.000005 v 12.866674 q 0,4.733336 1.000001,9.333338 h -8.200005 q -0.4,-2.200001 -0.6,-5.133336 h -0.133333 q -1.866668,2.733335 -5.06667,4.266669 -3.133335,1.533334 -6.86667,1.533334 -4.866669,0 -7.800004,-2.666668 -2.866669,-2.733335 -2.866669,-7.533337 0,-5.800003 4.86667,-9.266672 4.933336,-3.533335 14.133341,-3.533335 h 2.866668 v -0.2 q 0,-3.533335 -1.400001,-4.933336 -1.400001,-1.400001 -5.000003,-1.400001 -6.533336,0 -12.33334,3.000002 l -1.266667,-6.46667 Q 54.436961,21.10229 61.903631,21.10229 Z m -7.533337,25.133347 q 0,2.133334 1.266667,3.333335 1.266668,1.200001 3.466669,1.200001 3.800002,0 6.400003,-2.466668 2.600002,-2.466668 2.600002,-6.200004 v -2.266668 h -2.866668 q -5.26667,0 -8.066671,1.800001 -2.800002,1.733335 -2.800002,4.600003 z"
       id="path10568"
       style="fill:#ffffff" /><path
       d="M 95.436998,41.102301 H 95.303665 V 56.435642 H 86.636993 V 6.4356155 h 8.666672 V 35.302298 h 0.133333 L 108.63701,21.768957 h 10.33333 l -16.46667,16.466676 16.80001,18.200009 h -10.33334 z"
       id="path10570"
       style="fill:#ffffff" /><path
       d="m 126.10366,25.968959 q 4.66667,-4.866669 12.60001,-4.866669 7.93333,0 12.6,4.866669 4.66667,4.86667 4.66667,13.133341 0,8.266671 -4.66667,13.13334 -4.66667,4.866669 -12.6,4.866669 -7.93334,0 -12.60001,-4.866669 -4.6,-4.866669 -4.6,-13.13334 0,-8.266671 4.6,-13.133341 z m 12.60001,24.533347 q 4.06667,0 6.33333,-2.866668 2.26667,-2.933335 2.26667,-8.533338 0,-5.600003 -2.26667,-8.466672 -2.26666,-2.933334 -6.33333,-2.933334 -4,0 -6.26667,2.933334 -2.26667,2.866669 -2.26667,8.466672 0,5.600003 2.26667,8.533338 2.26667,2.866668 6.26667,2.866668 z"
       id="path10572"
       style="fill:#ffffff" /><path
       d="M 194.37032,6.4356155 V 56.435642 h -8.06667 l -0.2,-4.866669 h -0.13334 q -3.93333,5.533336 -10.6,5.533336 -6.20001,0 -10.06668,-4.666669 -3.8,-4.733336 -3.8,-13.33334 0,-8.800005 3.66667,-13.400008 3.73334,-4.600002 10.20001,-4.600002 6.26667,0 10.2,5.133336 h 0.13334 V 6.4356155 Z M 169.83697,39.1023 q 0,5.400003 2.2,8.333337 2.26667,2.866669 5.8,2.866669 3.53334,0 5.66667,-2.800002 2.20001,-2.866668 2.20001,-8.066671 v -0.666667 q 0,-5.066669 -2.20001,-7.933337 -2.13333,-2.933335 -5.66667,-2.933335 -3.8,0 -5.93333,2.800001 -2.06667,2.800002 -2.06667,8.400005 z"
       id="path10574"
       style="fill:#ffffff" /><path
       d="m 212.10372,21.768957 v 20.666678 q 0,4.466669 1.2,6.133336 1.26667,1.600001 4.26667,1.600001 2.93334,0 5.33334,-2.933335 2.46667,-3.000001 2.46667,-7.000003 V 21.768957 h 8.66667 v 34.666685 h -8.13334 l -0.2,-4.866669 h -0.13333 q -2,2.600001 -4.93334,4.066669 -2.93333,1.466667 -6.06667,1.466667 -5.66667,0 -8.33334,-3.200001 -2.66666,-3.266669 -2.66666,-10.600006 V 21.768957 Z"
       id="path10576"
       style="fill:#ffffff" /><path
       d="m 243.23708,21.768957 h 8 l 0.2,4.666669 h 0.13334 q 3.86666,-5.333336 8.86667,-5.333336 3.26667,0 5.4,1.333334 2.13333,1.333334 3.66667,4.333336 h 0.13333 q 4.33334,-5.66667 10.20001,-5.66667 5.6,0 8.13334,3.133335 2.6,3.066668 2.6,10.400006 v 21.800011 h -8.40001 v -19.80001 q 0,-5.200003 -1.13333,-7.000004 -1.06667,-1.800001 -3.86667,-1.800001 -2.4,0 -4.2,2.533335 -1.8,2.533334 -1.8,6.26667 v 19.80001 h -8.40001 v -19.80001 q 0,-5.200003 -1.13333,-7.000004 -1.06667,-1.800001 -3.86667,-1.800001 -2.4,0 -4.2,2.533335 -1.8,2.533334 -1.8,6.26667 v 19.80001 h -8.53334 z"
       id="path10578"
       style="fill:#ffffff" /><path
       d="m 305.77049,36.302298 h 16.26667 q -0.0667,-4.333335 -2.2,-6.600003 -2.06667,-2.333335 -5.86667,-2.333335 -3.66667,0 -5.86667,2.333335 -2.13333,2.333334 -2.33333,6.600003 z m 0,5.933337 q 0.33333,3.933335 3,6.26667 2.73333,2.266668 6.86667,2.266668 4.93334,0 9.80001,-2.466668 l 2,6.133336 q -6.00001,2.666668 -12.66668,2.666668 -7.86667,0 -12.8,-4.866669 -4.86667,-4.866669 -4.86667,-13.13334 0,-8.400005 4.53333,-13.200007 4.53334,-4.800003 12.26668,-4.800003 7.73333,0 12,4.600002 4.33334,4.600003 4.33334,13.200008 0,1.666667 -0.2,3.333335 z"
       id="path10580"
       style="fill:#ffffff" /></g><g
     aria-label="JACKBOXコレクション"
     id="text7565"
     style="font-size:29.3333px;font-family:'M PLUS 1p Edit';-inkscape-font-specification:'M PLUS 1p Edit';text-orientation:upright;stroke:#ffd627;stroke-width:0;stroke-linecap:round;stroke-linejoin:round;fill:#ffffff"><path
       d="m 27.215271,63.405173 v 13.199985 q 0,4.634661 -1.994665,6.570659 -1.994664,1.935997 -6.511992,1.935997 -2.815997,0 -5.279994,-1.319998 l 0.821332,-3.37333 q 2.493331,1.378666 4.370662,1.378666 2.258664,0 3.28533,-1.290666 1.055998,-1.290665 1.055998,-4.487994 V 63.405173 Z"
       id="path10539"
       style="fill:#ffffff" /><path
       d="m 28.916592,84.818481 7.421325,-21.413308 h 4.399995 l 7.450658,21.413308 h -4.399995 l -1.525331,-5.16266 h -7.538658 l -1.554665,5.16266 z m 6.717326,-8.301323 h 5.69066 l -2.815997,-9.503989 h -0.05867 z"
       id="path10541"
       style="fill:#ffffff" /><path
       d="m 60.59654,66.426503 q -3.314663,0 -5.279994,2.082664 -1.965331,2.053331 -1.965331,5.60266 0,3.519996 2.023997,5.60266 2.023998,2.082665 5.221328,2.082665 2.66933,0 5.221327,-1.613332 l 1.231999,3.02133 q -2.962664,1.906664 -6.834659,1.906664 -5.015994,0 -8.037324,-2.962663 -3.02133,-2.991996 -3.02133,-8.037324 0,-5.074661 2.962663,-8.037324 2.962663,-2.962663 8.095991,-2.962663 3.871995,0 6.834659,1.906664 l -1.231999,3.02133 Q 63.26587,66.426503 60.59654,66.426503 Z"
       id="path10543"
       style="fill:#ffffff" /><path
       d="m 75.204498,63.405173 v 9.298656 h 0.05867 l 7.479992,-9.298656 h 4.781328 l -8.506657,10.266655 8.79999,11.146653 H 83.036489 L 75.263164,74.639826 h -0.05867 V 84.818481 H 71.097836 V 63.405173 Z"
       id="path10545"
       style="fill:#ffffff" /><path
       d="m 95.033794,72.029163 h 1.085332 q 2.727996,0 3.930664,-0.733333 1.232,-0.762665 1.232,-2.22933 0,-1.407999 -0.99734,-2.082665 -0.967995,-0.674666 -3.226659,-0.674666 -1.114665,0 -2.023997,0.176 z m 0,3.050663 v 6.658659 q 1.026665,0.176 2.199997,0.176 2.434664,0 3.549329,-0.879999 1.144,-0.909332 1.144,-2.75733 0,-1.642665 -1.29067,-2.405331 -1.290661,-0.791999 -4.311991,-0.791999 z m 10.823986,3.578663 q 0,3.226662 -2.112,4.839994 -2.11199,1.613331 -6.599989,1.613331 -3.255996,0 -6.159993,-0.439999 V 63.551839 q 2.75733,-0.439999 5.86666,-0.439999 8.213322,0 8.213322,5.367994 0,1.818664 -1.20266,3.138663 -1.20267,1.290665 -3.19733,1.671998 v 0.05867 q 2.40533,0.322667 3.78399,1.789332 1.408,1.437331 1.408,3.519996 z"
       id="path10547"
       style="fill:#ffffff" /><path
       d="m 110.75646,66.103836 q 2.93333,-2.991996 7.80266,-2.991996 4.86933,0 7.77333,2.991996 2.93333,2.962664 2.93333,8.007991 0,5.045328 -2.93333,8.037324 -2.904,2.962663 -7.77333,2.962663 -4.86933,0 -7.80266,-2.962663 -2.90399,-2.991996 -2.90399,-8.037324 0,-5.045327 2.90399,-8.007991 z m 3.05067,13.639985 q 1.76,1.994664 4.75199,1.994664 2.992,0 4.752,-1.994664 1.75999,-2.023998 1.75999,-5.631994 0,-3.607996 -1.75999,-5.60266 -1.76,-2.023998 -4.752,-2.023998 -2.99199,0 -4.75199,2.023998 -1.76,1.994664 -1.76,5.60266 0,3.607996 1.76,5.631994 z"
       id="path10549"
       style="fill:#ffffff" /><path
       d="m 138.85777,76.517158 h -0.0587 l -4.136,8.301323 h -4.57599 l 6.10132,-10.85332 -5.95466,-10.559988 h 4.60533 l 4.07733,8.007991 h 0.0587 l 4.07733,-8.007991 h 4.48799 l -5.95466,10.559988 6.10133,10.85332 h -4.69333 z"
       id="path10551"
       style="fill:#ffffff" /><path
       d="m 152.73241,63.903839 h 21.11998 v 20.709309 h -21.11998 v -3.519996 h 17.21865 V 67.423835 h -17.21865 z"
       id="path10553"
       style="fill:#ffffff" /><path
       d="m 187.46303,82.119818 q 5.57333,-0.557333 8.88799,-3.255996 3.31467,-2.727997 5.28,-8.242658 l 3.60799,1.407999 q -2.69866,7.391991 -7.74399,10.677321 -5.04532,3.285329 -13.55198,3.285329 h -0.704 V 62.613174 h 4.22399 z"
       id="path10555"
       style="fill:#ffffff" /><path
       d="m 228.52965,68.098501 h -9.76799 q -1.84799,4.693328 -5.80799,8.477323 l -2.78666,-2.375997 q 2.55199,-2.522664 4.16532,-5.77866 1.64267,-3.28533 2.05334,-6.687992 l 3.81332,0.205333 q -0.11733,1.231998 -0.41066,2.639997 h 12.93598 v 0.674666 q 0,10.237321 -4.66399,15.106649 -4.664,4.869328 -14.98932,5.719993 l -0.58666,-3.519996 q 8.24265,-0.821332 11.87998,-4.047995 3.66667,-3.226663 4.16533,-10.413321 z"
       id="path10557"
       style="fill:#ffffff" /><path
       d="m 241.23097,82.266484 q 9.23999,-0.791999 13.46398,-4.311995 4.224,-3.519996 5.69066,-11.73332 l 3.72533,0.616 q -1.672,9.474656 -6.80532,13.87465 -5.13333,4.370662 -15.48799,5.279994 z m -1.17333,-9.415989 0.704,-3.490662 q 3.84266,0.645332 9.67998,1.877331 l -0.73333,3.461329 q -5.25066,-1.114665 -9.65065,-1.847998 z m 1.34933,-7.098658 0.73333,-3.519996 q 4.664,0.762666 9.97332,1.847998 l -0.73333,3.519996 q -5.30933,-1.085333 -9.97332,-1.847998 z"
       id="path10559"
       style="fill:#ffffff" /><path
       d="m 271.85495,67.981167 h 17.65864 v 17.247981 h -17.65864 v -3.19733 h 13.87465 v -4.282662 h -12.58399 v -3.138663 h 12.58399 v -3.490662 h -13.87465 z"
       id="path10561"
       style="fill:#ffffff" /><path
       d="m 299.25223,66.338503 1.87733,-3.519996 q 4.42933,2.111997 9.09333,4.722661 l -1.96534,3.461329 q -3.93066,-2.199997 -9.00532,-4.663994 z m 19.79998,-0.704 3.72533,0.821333 q -1.55467,8.71199 -7.03999,13.405318 -5.48533,4.693328 -15.25332,5.543993 l -0.58667,-3.813329 q 8.50666,-0.821332 13.05332,-4.634661 4.576,-3.842662 6.10133,-11.322654 z"
       id="path10563"
       style="fill:#ffffff" /></g><g
     aria-label="箱"
     id="text9753"
     style="font-size:37.3333px;font-family:'M PLUS 1p Edit';-inkscape-font-specification:'M PLUS 1p Edit';text-orientation:upright;fill:#ffffff;stroke:#ffd627;stroke-width:0;stroke-linecap:round;stroke-linejoin:round"
     transform="translate(-2.2413159,1.359624)"><path
       d="m 485.08085,29.631368 v 2.725331 h 7.01866 v -2.725331 z m 0,-5.973328 v 2.725331 h 7.01866 V 23.65804 Z m 0,-3.247998 h 7.01866 v -2.725331 h -7.01866 z m 2.20267,-10.8266571 h -1.792 q -1.456,2.2773311 -3.17333,4.1066631 h 6.57066 q -0.672,-1.903998 -1.60533,-4.1066631 z m -7.98933,7.7653271 v 3.882663 h -4.816 q 2.576,2.949331 5.264,6.383995 l -2.688,3.247997 q -1.68,-2.799998 -2.8,-4.479996 v 10.75199 h -4.74133 v -9.258658 q -1.75466,3.471997 -4.14399,6.197328 l -2.8,-3.546664 q 3.99466,-4.479996 5.78666,-9.295992 h -4.44266 v -3.882663 h 5.59999 v -4.330663 h 3.54667 q -0.74667,-2.015999 -1.30667,-3.4346641 h -1.19466 q -1.82934,3.1359971 -4.33067,5.4879951 l -3.13599,-2.911997 q 1.94133,-1.978665 3.43466,-4.5173298 1.53067,-2.5386645 2.24,-5.0026624 l 4.47999,0.7093328 q -0.26133,1.0079991 -0.74666,2.239998 h 8.47466 v 2.837331 q 2.016,-2.9493309 2.83733,-5.7866618 l 4.47999,0.7093328 q -0.26133,1.0079991 -0.74666,2.239998 h 10.07999 v 3.9946633 h -5.488 q 0.56,1.4186651 1.12,2.9866641 l -2.91199,1.119999 h 6.60799 v 23.40798 h -4.85333 v -1.269332 h -7.01866 v 1.269332 h -4.74133 V 13.839381 l -2.20266,-2.053331 q 0.82133,-0.784 1.97866,-2.2026651 h -3.54666 q 0.82133,2.0159981 1.15733,2.9866641 l -3.472,1.306666 v 3.471997 z"
       id="path10536"
       style="fill:#ffffff" /></g><g
     aria-label="詰"
     id="text9753-6"
     style="font-size:37.3333px;font-family:'M PLUS 1p Edit';-inkscape-font-specification:'M PLUS 1p Edit';text-orientation:upright;fill:#ffffff;stroke:#ffd627;stroke-width:0;stroke-linecap:round;stroke-linejoin:round"
     transform="translate(-2.2413159,2)"><path
       d="m 460.94181,67.414528 v 1.754665 h -4.74133 V 53.713206 h 18.66665 v 15.455987 h -4.96533 v -1.754665 z m -14.26133,0.821333 v 1.343999 h -4.14399 V 58.193203 h 11.31199 v 10.042658 z m 0,-3.583997 h 3.43467 V 61.7772 h -3.43467 z m 23.22132,-1.082666 v -5.786662 h -8.95999 v 5.786662 z m -27.36531,-23.18398 v -3.770664 h 11.19999 v 3.770664 z m -1.008,5.599995 v -4.031997 h 13.32799 v -3.210664 h 8.02666 v -3.546663 h 4.96533 v 3.546663 h 8.39999 v 4.106664 h -8.39999 v 4.143996 h 7.54132 v 3.882663 h -19.67465 v -3.882663 h 7.168 v -4.143996 h -7.91466 v 3.135997 z m 1.30666,5.301329 v -3.658664 h 10.82666 v 3.658664 z m 0,5.263995 v -3.62133 h 10.82666 v 3.62133 z"
       id="path10533"
       style="fill:#ffffff" /></g><g
     aria-label="め"
     id="text10528"
     style="font-size:37.3333px;font-family:'M PLUS 1p Edit';-inkscape-font-specification:'M PLUS 1p Edit';text-orientation:upright;fill:#ffffff;stroke:#ffd627;stroke-width:0;stroke-linecap:round;stroke-linejoin:round"
     transform="translate(-2.8816919,-0.56150387)"><path
       d="m 440.00663,72.370291 q 3.84534,1.567999 6.01067,4.741329 2.16533,3.135998 2.16533,7.242661 0,5.973328 -3.136,9.519992 -3.136,3.50933 -8.92266,4.293329 l -1.15733,-4.367996 q 4.144,-0.522666 6.30933,-2.911997 2.16533,-2.389332 2.16533,-6.533328 0,-2.463998 -1.26933,-4.40533 -1.26934,-1.941331 -3.62133,-3.023997 -3.50933,9.855991 -7.80266,14.821321 -4.29333,4.927995 -8.32533,4.927995 -2.94933,0 -4.928,-2.575997 -1.94133,-2.613332 -1.94133,-7.279994 0,-3.807997 1.60533,-6.981328 1.60534,-3.210664 4.48,-5.375995 -0.70933,-2.725331 -1.60533,-6.533328 l 4.47999,-0.895999 q 0.74667,3.135997 1.26934,5.189329 3.13599,-1.194666 6.83199,-1.194666 1.41867,0 2.98667,0.186667 0.74666,-2.463998 1.49333,-5.562662 l 4.47999,0.970666 q -0.37333,1.530665 -1.568,5.749328 z m -5.93599,3.434664 q -0.48533,-0.03733 -1.456,-0.03733 -3.09866,0 -5.59999,0.970666 1.19466,4.255997 2.68799,8.661326 2.31467,-3.994663 4.368,-9.594658 z m -7.54133,13.999988 q -2.016,-5.450662 -3.50933,-10.490658 -2.98666,2.986664 -2.98666,7.503994 0,2.501331 0.82133,3.882663 0.85867,1.343999 2.05333,1.343999 1.568,0 3.62133,-2.239998 z"
       id="path10530"
       style="fill:#ffffff" /></g><path
     style="fill:#ffffff;stroke-width:0.0937718"
     d="m 376.68388,98.319251 c -0.68264,-0.243498 -1.43749,-0.63989 -3.25761,-1.71067 -0.89019,-0.523697 -2.82115,-1.625816 -4.29102,-2.44915 -6.5529,-3.670539 -8.37971,-4.733957 -12.89363,-7.505603 -3.95565,-2.428853 -6.46253,-4.085449 -10.08047,-6.661361 -2.39054,-1.702021 -5.4776,-4.045786 -5.74071,-4.358484 -0.40738,-0.484136 -0.59522,-1.166307 -1.01114,-3.671849 l -0.39703,-2.391829 -0.62185,-0.547015 c -0.34202,-0.300857 -0.85996,-0.679295 -1.15099,-0.840973 l -0.52914,-0.293959 -0.2053,-0.905478 c -0.28865,-1.273094 -0.36966,-2.006231 -0.38227,-3.459558 -0.006,-0.696256 -0.0391,-1.498005 -0.0734,-1.781664 -0.15173,-1.253772 0.16866,-7.130367 0.4149,-7.610045 0.57853,-1.126985 3.75577,-4.349869 13.19058,-13.380064 1.6889,-1.616471 3.05072,-2.971415 3.02627,-3.010986 -0.0245,-0.03957 -0.41487,-0.09498 -0.86757,-0.123143 -1.52184,-0.09466 -2.75896,-0.660738 -3.87913,-1.775017 -0.72719,-0.72336 -1.14263,-1.482319 -1.35022,-2.466714 -0.18125,-0.859435 -0.1813,-2.476756 -9e-5,-3.191982 0.24103,-0.951439 0.84386,-2.053807 1.50824,-2.758089 l 0.60288,-0.639084 -0.46608,-1.08853 c -1.04202,-2.433607 -1.70804,-5.00202 -1.88669,-7.275768 -0.11611,-1.477899 -0.004,-3.943968 0.2365,-5.200796 0.1587,-0.829448 0.6796,-2.185075 1.17362,-3.054271 1.52526,-2.6836308 2.74694,-3.9071529 5.46051,-5.4687665 2.02225,-1.1637762 2.09452,-1.1916809 5.13844,-1.9841447 0.69626,-0.1812651 1.5191,-0.3808599 1.82856,-0.443544 0.83915,-0.1699862 4.59418,-0.14296 5.47417,0.039399 0.67334,0.1395373 0.69312,0.1383821 0.74062,-0.043261 0.0268,-0.102645 0.1586,-0.4030847 0.29279,-0.667644 0.21987,-0.4334682 0.27808,-0.4838542 0.58892,-0.5097204 0.48929,-0.040716 0.94627,0.2829051 1.1797,0.8354203 0.1757,0.4158696 0.21103,0.4438764 0.68996,0.5470693 1.18872,0.2561207 2.52715,0.3233948 4.06812,0.2044761 0.82519,-0.063681 1.69023,-0.1536723 1.92232,-0.1999797 0.23209,-0.046307 1.498,-0.085155 2.81315,-0.086328 3.82363,-0.00341 5.47084,0.3004855 9.47095,1.7473109 4.63673,1.6770856 10.13304,4.608484 11.68156,6.2302317 0.77888,0.8157 1.0363,1.297434 1.27517,2.386296 0.24839,1.132196 0.29506,3.714607 0.091,5.034332 -0.19365,1.252382 -0.73528,2.29554 -3.26311,6.284595 -0.84298,1.330282 -1.5327,2.437961 -1.5327,2.46151 0,0.02354 0.15909,0.04281 0.35354,0.04281 0.79054,0 2.08847,0.483076 3.19424,1.18886 0.43271,0.276186 0.5435,0.412983 0.82112,1.01385 0.54601,1.181759 0.72278,2.135433 0.66938,3.611141 -0.0724,2.000734 -0.53237,3.09096 -1.86507,4.420728 -0.67131,0.669825 -2.11332,1.674439 -2.40349,1.674439 -0.0709,0 -0.11428,0.04398 -0.0964,0.09774 0.018,0.05375 2.71096,1.646704 5.98452,3.539885 l 5.95195,3.442149 0.16697,0.609516 c 0.28523,1.041131 0.61949,2.797378 0.83917,4.409 0.27099,1.987973 0.30223,6.295754 0.0531,7.312475 -0.30425,1.241326 -0.41907,1.448268 -1.18966,2.144073 -0.55088,0.497412 -0.75128,0.74626 -0.84033,1.043465 -0.14049,0.468926 -0.85343,5.339043 -0.85449,5.837072 -6.5e-4,0.319958 -0.12206,0.484463 -1.38387,1.875599 -0.76073,0.838684 -2.79675,3.106692 -4.5245,5.04002 -4.37186,4.892072 -7.72038,8.465673 -14.63053,15.61398 -5.23784,5.418369 -7.4658,7.773523 -8.00587,8.462904 -0.25252,0.322342 -0.52675,0.58299 -0.6094,0.57922 -0.0826,-0.0038 -0.36125,-0.08211 -0.61912,-0.174096 z m -0.41383,-3.334741 c -0.0563,-1.186627 -0.10232,-4.812416 -0.10218,-8.057312 1.8e-4,-3.244893 -0.0233,-5.876318 -0.0519,-5.847608 -0.0287,0.02871 -0.17417,0.594858 -0.32326,1.258105 -0.14908,0.663248 -0.50617,2.07095 -0.79353,3.128227 -0.28736,1.057276 -0.54835,2.141861 -0.57996,2.410187 -0.0619,0.525395 -0.31433,1.029392 -0.56345,1.124985 -0.4737,0.181777 -2.21159,-0.770691 -5.93951,-3.255215 -1.05728,-0.704638 -2.72407,-1.759352 -3.70399,-2.343814 -0.97991,-0.584462 -2.92099,-1.758425 -4.3135,-2.608809 -4.04919,-2.472775 -6.11966,-3.633148 -8.29881,-4.650991 -0.54153,-0.252939 -1.11119,-0.574969 -1.26591,-0.715621 -0.38999,-0.354523 -10.36189,-5.387819 -10.3614,-5.229897 2.2e-4,0.06877 0.1453,1.15509 0.32242,2.414054 0.25452,1.809178 0.35765,2.321955 0.49191,2.446115 0.0934,0.08639 0.97164,0.747768 1.95155,1.469707 4.7076,3.468259 9.27088,6.397005 19.50453,12.518161 5.82642,3.485006 9.94517,5.993879 12.42477,7.568364 1.6328,1.036778 1.64116,1.040707 1.67287,0.785422 0.0175,-0.141108 -0.0143,-1.227435 -0.0706,-2.41406 z m 1.5081,1.898315 c 0.71659,-1.009406 1.63242,-2.007785 9.26872,-10.104098 7.46837,-7.91826 7.64942,-8.113114 10.61187,-11.42097 3.15808,-3.526287 4.11749,-4.574643 6.34974,-6.938426 l 1.53736,-1.627946 0.22174,-2.173219 c 0.12197,-1.195271 0.21,-2.236516 0.19565,-2.313878 -0.068,-0.36653 -9.52271,9.352707 -15.61409,16.050996 -1.29781,1.427107 -2.4036,2.621903 -2.4573,2.6551 -0.0538,0.0332 -0.33874,0.363568 -0.63337,0.734157 -0.29463,0.370588 -1.27534,1.539111 -2.17936,2.596718 -0.90402,1.057605 -2.16869,2.549108 -2.81038,3.314451 l -1.16672,1.391531 -0.61495,-0.06408 c -0.33822,-0.03525 -0.64399,-0.09203 -0.67949,-0.12621 -0.10926,-0.105183 -0.51306,-1.608002 -0.68438,-2.547083 -0.0894,-0.489957 -0.26516,-1.355002 -0.39064,-1.922322 -0.12546,-0.567319 -0.35334,-1.656366 -0.50639,-2.420104 -0.22901,-1.142835 -0.7614,-2.878003 -0.88304,-2.878003 -0.0167,0 -0.0197,3.555124 -0.006,7.900274 0.0132,4.353298 -0.0141,8.152876 -0.0607,8.462905 -0.0465,0.309447 -0.10895,0.718199 -0.13882,0.90834 -0.0299,0.190131 -0.026,0.496484 0.008,0.680773 0.0549,0.292343 0.0854,0.323016 0.23946,0.240562 0.0971,-0.05199 0.27401,-0.231738 0.39308,-0.399468 z m -2.94627,-14.302733 c 0.9048,-3.307894 1.43002,-5.390785 1.43002,-5.671137 v -0.443087 l -4.8527,-2.434612 c -2.66897,-1.339037 -5.75993,-2.914501 -6.86878,-3.50103 -1.10884,-0.58653 -3.19761,-1.6907 -4.6417,-2.45371 -3.44837,-1.822017 -9.11547,-4.917926 -12.79985,-6.99249 -1.6246,-0.914762 -3.73446,-2.094714 -4.68859,-2.622113 -2.2001,-1.216117 -3.53863,-2.020886 -4.4562,-2.679204 -0.39831,-0.285782 -0.73894,-0.504872 -0.75695,-0.486868 -0.0845,0.08449 0.17588,11.941158 0.26461,12.04946 0.13054,0.159351 2.34715,1.55957 3.65514,2.30893 0.58244,0.333681 2.87345,1.493612 5.09115,2.577625 4.42361,2.162252 5.60642,2.784801 10.26801,5.404324 1.72775,0.970885 4.48064,2.494639 6.11754,3.38612 1.63689,0.891483 3.08388,1.720743 3.21552,1.842803 0.13163,0.122059 1.1343,0.764992 2.22815,1.42874 2.05437,1.246589 3.73019,2.344772 4.70821,3.085343 0.30944,0.234318 0.58372,0.426691 0.60951,0.427494 0.0258,8.44e-4 0.6904,-2.351161 1.47691,-5.226588 z m 6.39788,4.690937 c 0.28759,-0.296553 0.79536,-0.897865 1.12836,-1.336248 0.33299,-0.438384 1.72525,-1.999684 3.0939,-3.469556 1.36865,-1.469873 4.02463,-4.381488 5.90219,-6.470255 7.36516,-8.193688 10.60745,-11.568999 15.17344,-15.795969 0.94174,-0.87181 1.84341,-1.789507 2.00372,-2.039329 l 0.29147,-0.454219 -0.0629,-1.006038 c -0.33967,-5.42515 -0.80225,-10.110149 -0.99081,-10.03492 -0.0369,0.01473 -0.29323,0.301071 -0.56953,0.636306 -0.69616,0.844627 -3.1211,3.58944 -4.25544,4.816776 -0.518,0.56046 -2.18664,2.201633 -3.70809,3.64705 -1.52144,1.445417 -3.88449,3.730177 -5.25122,5.077243 -1.36672,1.347067 -3.2656,3.163248 -4.21973,4.03596 -3.44292,3.149134 -7.90614,7.418268 -9.01414,8.622159 -1.33247,1.447792 -1.85888,1.950744 -2.77766,2.653847 -0.37392,0.286144 -0.67985,0.529268 -0.67985,0.540276 0,0.01101 0.16534,0.426372 0.36742,0.923028 0.20209,0.496656 0.5205,1.442524 0.70759,2.10193 0.18709,0.659405 0.54584,1.83188 0.79724,2.605496 0.47752,1.469477 0.85553,3.101346 1.03177,4.454161 0.0571,0.438383 0.122,0.849807 0.14421,0.914275 0.0833,0.242106 0.38149,0.100461 0.88814,-0.421973 z m -1.59729,-21.197295 c 0.68137,-0.236734 1.33746,-0.629902 1.72346,-1.032803 0.24307,-0.253723 0.28481,-0.425627 0.62901,-2.590983 0.54897,-3.453728 1.32762,-7.261847 2.02016,-9.880036 0.93674,-3.541458 3.78101,-12.59754 4.27302,-13.605254 0.43695,-0.894915 1.00495,-1.522904 1.53596,-1.698151 0.50261,-0.165877 1.90878,-0.06534 2.62346,0.187566 0.72496,0.25655 2.00586,0.345219 2.78328,0.192672 1.21553,-0.23851 2.40777,-0.906628 3.21808,-1.803365 0.80448,-0.890272 1.35422,-2.374626 1.3581,-3.666977 0.003,-0.974756 -0.18969,-2.348438 -0.38732,-2.762322 -0.45226,-0.947145 -2.14369,-1.89785 -3.65817,-2.056142 -0.4944,-0.05168 -0.58378,-0.03651 -0.6676,0.113249 -0.0532,0.09511 -0.53161,0.745168 -1.06308,1.444587 -1.38889,1.827758 -2.95621,3.178304 -4.58399,3.949978 -0.76043,0.36049 -4.1318,1.519338 -4.76658,1.638422 -0.19033,0.0357 -0.36675,0.0984 -0.39203,0.139313 -0.0984,0.15933 -1.48566,6.547444 -2.34128,10.781877 -1.33025,6.583209 -2.02898,10.53558 -2.29602,12.987394 -0.13546,1.243505 -0.1602,1.336725 -0.38724,1.45823 -0.15449,0.08268 -0.23102,0.07066 -0.37398,-0.05872 -0.14379,-0.130132 -0.17974,-0.29104 -0.17974,-0.804535 0,-0.45173 -0.0347,-0.641451 -0.11721,-0.640461 -0.0645,7.51e-4 -0.44892,0.104442 -0.85433,0.230371 -1.34488,0.417754 -2.20049,0.55753 -3.38885,0.553618 -1.71001,-0.0056 -3.23745,-0.411991 -4.36039,-1.160032 l -0.42197,-0.281096 -0.0469,0.631762 c -0.05,0.673393 -0.16788,0.805678 -0.50098,0.562108 -0.20393,-0.149115 -0.78851,-2.278233 -2.82539,-10.290405 -1.38974,-5.466603 -2.07475,-7.967613 -2.83806,-10.361784 l -0.35875,-1.125261 -0.74716,-0.11602 c -4.79401,-0.744426 -6.38626,-1.477429 -9.10171,-4.190012 -1.70349,-1.70171 -2.54133,-2.77388 -3.69718,-4.731315 l -0.40843,-0.691657 -0.18045,0.222798 c -0.27777,0.342978 -0.78928,1.406253 -1.04969,2.182022 -0.36322,1.081983 -0.2893,2.688192 0.18833,4.092484 0.50705,1.490771 1.43863,2.193288 3.28085,2.474144 1.46947,0.224028 2.68212,0.335583 3.64788,0.335583 0.48894,0 0.9143,0.04096 0.94524,0.09101 0.0309,0.05006 0.39888,0.26927 0.81763,0.487132 1.43878,0.748531 2.27455,1.827955 3.20785,4.142992 0.59973,1.487622 2.75842,8.683446 4.3624,14.541683 0.64509,2.356069 1.41268,5.742344 1.75183,7.728283 l 0.16554,0.969436 0.47191,0.412813 c 0.25955,0.227046 0.78519,0.567605 1.16809,0.756799 0.62805,0.310327 0.79805,0.350546 1.7374,0.411037 0.57267,0.03688 2.9401,0.06049 5.26096,0.05249 4.10802,-0.01418 4.23573,-0.02013 4.82403,-0.224529 z m -3.48383,-7.85536 c 0.94292,-0.192423 1.92115,-0.533056 2.3546,-0.819898 l 0.34639,-0.229229 0.30166,-2.654163 c 0.16591,-1.45979 0.26938,-2.681439 0.22992,-2.714779 -0.0395,-0.03334 -0.24304,-0.109216 -0.45243,-0.168617 -0.52,-0.147518 -0.75542,-0.435066 -0.82781,-1.011096 -0.0509,-0.40495 -0.0288,-0.517772 0.14488,-0.738512 0.25854,-0.328681 0.86355,-0.607335 1.32445,-0.610012 0.19601,-0.0011 0.37424,-0.05448 0.39855,-0.119274 0.1551,-0.413513 1.90482,-9.208622 1.90749,-9.588167 0.002,-0.257871 0.0456,-0.764239 0.0972,-1.125261 0.0842,-0.58819 0.0275,-1.278038 -0.11677,-1.422347 -0.17403,-0.174036 -2.49258,1.949955 -3.26718,2.993025 -0.53541,0.720976 -0.82852,0.837485 -0.82568,0.328201 9.4e-4,-0.167617 0.12762,-0.533224 0.28154,-0.812461 0.15391,-0.279235 0.2692,-0.516812 0.25617,-0.527945 -0.0131,-0.01114 -0.21355,0.03208 -0.44564,0.09604 -0.23208,0.06396 -0.84394,0.232762 -1.35969,0.37512 -0.80055,0.220975 -1.17257,0.265727 -2.5433,0.30596 -1.29908,0.03812 -1.6929,0.01901 -2.06298,-0.100105 -0.25157,-0.08098 -0.7213,-0.197173 -1.04384,-0.258215 -0.41701,-0.07893 -0.70752,-0.205331 -1.00561,-0.437567 -0.23055,-0.179622 -0.99439,-0.595111 -1.69743,-0.923312 l -1.27824,-0.596728 0.64293,0.677709 c 0.76005,0.801178 1.34751,1.841868 1.3431,2.379315 l -0.003,0.361374 -0.23728,-0.281315 c -0.1305,-0.154723 -0.77268,-0.865932 -1.42706,-1.580465 -1.19801,-1.308145 -1.78303,-1.745114 -2.33959,-1.747517 -0.19054,-8.44e-4 -0.2076,0.03482 -0.1679,0.350728 0.0243,0.193404 0.0667,0.651207 0.0943,1.017342 0.0799,1.063243 1.36776,6.067218 2.50149,9.719529 l 0.2838,0.914275 h 0.72467 c 0.6254,0 0.76813,0.03206 1.04186,0.23401 0.42208,0.311394 0.46631,0.395882 0.468,0.893829 0.002,0.581342 -0.15723,0.763617 -0.93259,1.06782 -0.50923,0.199791 -0.65658,0.298045 -0.624,0.416081 0.0235,0.08499 0.27982,1.146165 0.56968,2.358165 l 0.52701,2.203637 0.67609,0.436396 c 0.86411,0.557767 1.47805,0.861828 2.23141,1.10514 1.19387,0.385582 2.7188,0.476547 3.91083,0.233287 z m -4.19958,-6.37836 c -0.69025,-0.299334 -1.09408,-0.91219 -1.18293,-1.795234 -0.0538,-0.534765 -0.0505,-0.544084 0.32135,-0.903032 0.34489,-0.332948 0.3914,-0.351697 0.56707,-0.228645 0.19063,0.133519 0.19066,0.135219 0.008,0.435284 -0.18218,0.299569 -0.23316,0.803876 -0.1229,1.215552 0.0364,0.135829 0.22941,0.302543 0.52187,0.45075 0.51669,0.261823 0.45999,0.279353 1.1805,-0.36491 0.22163,-0.198178 0.47481,-0.346699 0.56262,-0.330048 0.0878,0.01665 0.30532,0.276959 0.48336,0.578461 0.31839,0.539232 0.3295,0.547403 0.68054,0.50032 0.51359,-0.06889 1.02526,-0.361164 1.27808,-0.730084 0.17895,-0.261099 0.21142,-0.406397 0.17635,-0.788903 -0.0237,-0.257872 -0.0742,-0.542927 -0.11234,-0.633456 -0.0652,-0.154692 -0.0448,-0.154179 0.33939,0.0086 0.40311,0.170731 0.40916,0.180079 0.43776,0.676134 0.0367,0.637436 -0.16725,1.106033 -0.6507,1.494545 -0.78437,0.630336 -1.45099,0.706034 -2.14911,0.244043 l -0.36621,-0.242346 -0.7079,0.281209 c -0.80944,0.321549 -0.82399,0.323065 -1.26498,0.131831 z m 4.89658,-3.883205 c -0.66094,-0.402971 -0.63361,-1.463772 0.0457,-1.773279 0.88753,-0.404387 1.80612,0.317494 1.5389,1.209367 -0.20008,0.667805 -0.96672,0.94063 -1.58459,0.563912 z m -6.5277,-0.101828 c -0.13705,-0.1078 -0.32759,-0.34884 -0.42342,-0.535644 l -0.17426,-0.339645 0.37858,-0.44896 c 0.31678,-0.375686 0.4312,-0.448959 0.70106,-0.448959 0.455,0 0.83757,0.258207 1.00591,0.678913 0.2145,0.536083 0.11727,0.748793 -0.47501,1.039274 -0.61625,0.302237 -0.69325,0.306421 -1.01286,0.05503 z m -1.72679,-1.187134 c -0.46242,-0.399848 -0.4203,-0.461525 1.39138,-2.03728 0.93291,-0.811429 1.71758,-1.453946 1.74371,-1.427816 0.10233,0.102326 -0.16287,1.137141 -0.40584,1.583526 -0.30727,0.56456 -0.85186,1.061375 -1.78335,1.626896 -0.37937,0.230325 -0.7047,0.418774 -0.72295,0.418774 -0.0183,0 -0.11857,-0.07385 -0.22295,-0.1641 z m 10.52527,-0.170397 c -0.30641,-0.183973 -0.67889,-0.447706 -0.82771,-0.586074 -0.41545,-0.386222 -0.94448,-1.249931 -1.13329,-1.850222 -0.16188,-0.514654 -0.16218,-0.546851 -0.006,-0.660954 0.14551,-0.106398 0.31913,0.03952 1.53721,1.291928 0.79287,0.815226 1.38522,1.501264 1.4017,1.6234 0.0265,0.196532 -0.18751,0.516419 -0.34551,0.516419 -0.038,0 -0.31985,-0.150524 -0.62626,-0.334497 z m -12.83084,-6.592379 c -0.59548,-0.701873 -0.74114,-0.824924 -0.93309,-0.788231 -0.27087,0.05178 -0.40485,-0.115119 -0.24602,-0.306489 0.1578,-0.190145 0.88784,-0.173866 1.23551,0.02755 0.15578,0.09025 0.49071,0.470195 0.7443,0.844311 0.38551,0.568758 0.44463,0.71088 0.36087,0.867389 -0.18685,0.349147 -0.43563,0.211107 -1.16157,-0.644531 z m 12.9307,0.458426 c -0.093,-0.293057 0.45697,-0.999763 1.10299,-1.417307 0.56555,-0.365529 0.84313,-0.436923 1.0903,-0.280417 0.1838,0.116384 0.056,0.383115 -0.18359,0.383115 -0.11816,0 -0.53333,0.305328 -1.02005,0.750174 -0.45144,0.412597 -0.84553,0.750174 -0.87574,0.750174 -0.0302,0 -0.0815,-0.08358 -0.11391,-0.185739 z m -4.58917,-1.228425 c 0.50913,-0.09275 0.91392,-0.273728 0.61222,-0.273728 -0.2246,0 -1.08351,-0.478222 -1.39205,-0.775071 -0.60557,-0.582616 -0.34052,-0.589156 0.83558,-0.02062 1.1845,0.572601 1.74925,0.625138 3.02705,0.281603 0.51275,-0.137851 1.0835,-0.32779 1.26834,-0.422087 1.07218,-0.546985 2.32805,-1.849924 2.92814,-3.037872 0.327,-0.647321 0.73199,-1.781916 0.73199,-2.050652 0,-0.261167 0.30566,-0.167848 0.38508,0.117565 0.0358,0.128664 0.0693,0.392177 0.0745,0.585581 0.007,0.251974 0.0508,0.351644 0.15552,0.351644 0.18593,0 3.43137,-1.089042 4.85371,-1.628713 1.41482,-0.536814 2.03572,-0.89319 3.49411,-2.00547 1.1326,-0.86382 1.25443,-0.988994 1.94257,-1.996058 0.80134,-1.172712 5.07755,-7.900188 5.52484,-8.691857 0.28578,-0.505806 0.53936,-1.305327 0.54132,-1.706716 6.5e-4,-0.125547 0.0871,-0.406032 0.19234,-0.623302 0.28544,-0.589641 0.36352,-2.607084 0.14299,-3.69487 -0.16961,-0.836659 -0.64628,-1.981856 -1.0395,-2.497388 -0.27788,-0.364327 -2.15788,-1.4942144 -6.3661,-3.8260655 -1.47984,-0.8200134 -3.0135,-1.5803899 -3.68578,-1.8273869 -2.02281,-0.7431914 -6.00651,-1.774197 -8.04409,-2.0818576 -1.64783,-0.2488126 -4.24397,-0.3254342 -5.95451,-0.1757388 -0.74783,0.065446 -1.90825,0.1445767 -2.57872,0.1758473 l -1.21904,0.056855 -0.0682,0.5626308 c -0.0804,0.6624099 0.0113,2.0653241 0.11641,1.7805582 0.0379,-0.1025407 0.0995,-0.4097287 0.13689,-0.6826398 0.0783,-0.5711841 0.39069,-1.0072915 0.86253,-1.2044408 0.35263,-0.147339 1.59292,-0.1710969 1.94494,-0.037256 0.30004,0.1140718 0.9955,1.0513727 1.38381,1.8649981 0.39888,0.8357853 0.46077,1.6944165 0.18155,2.5189959 -0.29547,0.872583 -0.29614,0.8711814 0.38862,0.8164285 0.32234,-0.025778 1.21903,-0.08468 1.99265,-0.1308975 1.63488,-0.097674 2.2103,-0.2344215 4.3749,-1.0396871 1.09212,-0.4062849 1.7686,-0.6007268 2.3533,-0.676408 l 0.82058,-0.1062136 0.38127,0.3706028 c 0.3642,0.3540063 0.3785,0.3894999 0.31936,0.7925759 -0.0975,0.6646992 -0.41946,0.9262849 -0.41946,0.3408473 0,-0.17725 -0.0852,-0.4238466 -0.19436,-0.5626309 -0.17779,-0.2260298 -0.25167,-0.2470309 -0.86739,-0.2465524 -0.84473,6.564e-4 -1.22185,0.1031117 -2.22026,0.6031899 -0.76402,0.3826754 -1.2689,0.5405183 -2.74876,0.8593648 -1.94792,0.4196965 -3.34693,0.5009021 -5.40939,0.3139887 -1.78044,-0.1613523 -2.62576,-0.3358244 -3.04017,-0.6274755 -0.45754,-0.3220079 -0.52792,-0.4931883 -0.20277,-0.4931883 0.29184,0 0.29842,-0.056445 0.0492,-0.4219731 -0.62202,-0.9122688 -0.82764,-1.6170184 -0.98715,-3.3834587 -0.0464,-0.5141052 -0.0262,-0.7293243 0.0895,-0.9529946 l 0.14941,-0.288918 -0.67803,-0.1071909 c -1.10999,-0.1754788 -1.03507,-0.1939311 -1.13034,0.2784019 -0.23724,1.1761608 0.54412,4.7425406 1.1505,5.2512205 0.20481,0.1718156 0.39237,0.7030693 0.3173,0.898717 -0.0446,0.1160814 -0.15498,0.1311037 -0.58212,0.079182 -0.64311,-0.078172 -0.94002,-0.2228176 -1.48109,-0.721555 -0.51768,-0.4771791 -1.52241,-1.7560211 -1.82219,-2.3193252 -0.20718,-0.3893059 -0.22456,-0.5272341 -0.22456,-1.7816641 0,-0.7478301 0.0299,-1.4933953 0.0664,-1.6568116 l 0.0665,-0.2971206 -0.72285,-0.077967 c -0.39758,-0.042882 -1.63011,-0.075485 -2.73896,-0.072451 l -2.0161,0.00552 -1.17214,0.3341197 c -0.64469,0.1837659 -1.46029,0.4084033 -1.81248,0.4991943 -0.72834,0.1877648 -3.56613,1.5561618 -4.75042,2.2906828 -1.00742,0.6248219 -2.15069,1.5240395 -2.82853,2.2247354 -1.15832,1.1973707 -1.73163,2.1659897 -2.69384,4.5513097 l -0.48016,1.190296 0.002,2.232374 c 9.4e-4,1.227806 0.04,2.596825 0.0869,3.042265 0.22134,2.102977 1.95312,6.914286 3.29674,9.159151 1.49488,2.4976 4.05928,5.086188 6.18687,6.245216 0.73839,0.402247 2.63269,0.902211 4.26218,1.124918 0.88551,0.121024 6.98384,0.618123 7.58305,0.618123 0.0843,0 0.19189,-0.18899 0.28034,-0.492301 0.2679,-0.918841 0.94432,-1.749985 1.31001,-1.609659 0.20765,0.07968 0.20151,0.111839 -0.16871,0.884373 -0.75327,1.571793 -0.42883,3.055597 0.78281,3.580106 1.16623,0.50486 2.78998,0.680583 4.09393,0.443048 z m -4.02436,-1.188717 c -0.0242,-0.03907 -0.0725,-0.22346 -0.10745,-0.409748 -0.13892,-0.740524 0.801,-1.897241 1.99813,-2.459022 1.43942,-0.675477 3.04463,-0.957935 6.11277,-1.075624 1.52222,-0.05839 1.78279,-0.09161 2.12669,-0.271126 l 0.39193,-0.204584 -0.11746,0.279362 c -0.0646,0.153649 -0.21757,0.349471 -0.3399,0.43516 -0.36033,0.252391 -1.35848,0.393672 -2.81144,0.397947 -0.74783,0.0022 -1.78167,0.06757 -2.29741,0.145274 -1.04764,0.157836 -2.57917,0.513784 -2.5779,0.599143 0.002,0.124772 1.19555,0.813225 1.90846,1.100673 0.55543,0.223954 0.76321,0.353336 0.76321,0.475244 0,0.262477 -0.43958,0.256154 -0.97268,-0.014 -0.2598,-0.131649 -0.85612,-0.472062 -1.32516,-0.756475 -0.65786,-0.398911 -0.89059,-0.496888 -1.01813,-0.428631 -0.33953,0.181713 -0.91415,0.921081 -1.22663,1.578338 -0.30762,0.646999 -0.40832,0.767774 -0.50703,0.608061 z m -4.43957,-10.309353 c -0.30845,-0.05989 -0.94947,-0.749586 -1.2428,-1.337186 -0.39591,-0.79308 -0.66704,-2.098325 -0.8018,-3.859918 -0.0587,-0.766222 -0.0421,-0.872449 0.31565,-2.034025 0.40197,-1.305036 0.91132,-2.608125 1.05394,-2.696262 0.0475,-0.02938 0.16622,-0.208795 0.26376,-0.398699 0.25045,-0.48762 1.13189,-1.344344 1.91173,-1.858106 0.58426,-0.384907 0.73858,-0.442477 1.29229,-0.482095 0.5707,-0.04083 0.63873,-0.02646 0.73613,0.155551 0.0841,0.157151 0.076,0.266457 -0.0372,0.505201 -0.14467,0.304874 -0.50572,0.741287 -0.73091,0.88348 -0.14843,0.09372 -1.08893,1.188915 -1.3679,1.592887 -0.11327,0.164041 -0.31796,0.586014 -0.45484,0.937718 -0.23268,0.5978 -0.24913,0.740275 -0.25264,2.186699 -0.005,1.923222 0.19782,3.144217 0.84521,5.0965 0.271,0.817255 0.22873,1.067794 -0.21424,1.269623 -0.22115,0.100768 -0.89455,0.120528 -1.31634,0.03863 z m 1.13475,-0.692588 c 0.0498,-0.04549 -0.0756,-0.559578 -0.30232,-1.239751 -0.56019,-1.680686 -0.7002,-2.620845 -0.65208,-4.378645 0.0347,-1.26851 0.07,-1.533483 0.27736,-2.082303 0.48156,-1.274721 1.42244,-2.578954 2.29208,-3.177287 0.29119,-0.200333 0.40982,-0.346914 0.40982,-0.506345 0,-0.123415 -0.0383,-0.248038 -0.085,-0.27694 -0.13547,-0.08372 -1.89652,0.850526 -2.27572,1.207295 -0.71056,0.668486 -1.61468,2.26322 -1.86631,3.291859 -0.0626,0.25594 -0.17043,0.578259 -0.23961,0.716265 -0.22705,0.452946 -0.3377,1.961218 -0.22591,3.079361 0.15203,1.520785 0.46333,2.262763 1.28654,3.066468 0.48908,0.477497 0.52314,0.493994 0.90222,0.436979 0.21668,-0.03259 0.43221,-0.09422 0.47896,-0.136956 z m 4.34675,-0.878818 c -1.06305,-0.811696 -1.8552,-2.586421 -1.85216,-4.149551 10e-4,-0.615515 0.59091,-2.836226 0.9103,-3.427925 0.31255,-0.579015 1.24386,-1.600459 1.75136,-1.920869 0.8811,-0.556264 2.45687,-0.816315 3.57329,-0.589701 0.66115,0.134202 2.52822,0.937203 2.41926,1.040493 -0.0412,0.03909 -0.39145,-0.01256 -0.77826,-0.114768 -0.52934,-0.139877 -0.88883,-0.174535 -1.45345,-0.140125 -0.90516,0.05516 -2.42525,0.451345 -3.16753,0.82556 -0.80599,0.406335 -1.567,1.214256 -1.89106,2.007623 -0.14632,0.35822 -0.38667,0.919781 -0.53409,1.247911 -0.30924,0.688251 -0.32179,0.88281 -0.12056,1.868862 0.23241,1.138831 0.70017,2.014408 1.49628,2.800828 0.49031,0.48434 0.65128,0.699941 0.5776,0.773618 -0.18333,0.183322 -0.49866,0.108142 -0.93098,-0.221956 z m 0.74748,-0.520774 c -0.64152,-0.350073 -1.39179,-1.614288 -1.57193,-2.648744 -0.093,-0.5342 -0.0858,-0.651283 0.0575,-0.926658 0.0902,-0.17336 0.22153,-0.587861 0.29184,-0.921114 0.0703,-0.333253 0.23936,-0.797423 0.37566,-1.03149 0.28065,-0.481959 1.4077,-1.691495 1.57614,-1.691495 0.0609,0 0.18495,-0.082 0.27566,-0.182228 0.0907,-0.100227 0.28664,-0.208967 0.43543,-0.241645 0.14878,-0.03267 0.29459,-0.09836 0.32401,-0.145972 0.0294,-0.04761 0.21831,-0.08656 0.41975,-0.08656 0.458,0 0.57039,0.181643 0.60997,0.985796 0.0158,0.321278 0.11276,0.979906 0.21546,1.463622 0.13923,0.655861 0.17882,1.141751 0.15569,1.91097 -0.0422,1.406141 -0.26702,2.072017 -1.01878,3.018546 -0.45239,0.569605 -0.48996,0.589359 -1.22934,0.646321 -0.44868,0.03457 -0.63591,0.0041 -0.91708,-0.149352 z m 1.75316,-0.685225 c 0.49487,-0.648809 0.68961,-1.590225 0.3818,-1.845686 -0.0773,-0.06421 -0.14066,-0.181399 -0.14066,-0.26043 0,-0.07903 -0.17056,-0.305952 -0.37903,-0.504264 -0.36355,-0.345839 -0.40512,-0.360568 -1.01762,-0.360568 -0.72955,0 -1.11281,0.193148 -1.49296,0.752406 -0.17829,0.2623 -0.21343,0.413373 -0.17989,0.773448 0.0518,0.556796 0.13012,0.641246 0.33839,0.365135 0.35099,-0.465317 1.43418,-0.311701 1.56823,0.222402 0.0726,0.289342 -0.11079,0.755486 -0.36817,0.935771 -0.23894,0.167359 -0.21264,0.192811 0.31202,0.301809 0.49479,0.102794 0.65801,0.03937 0.97789,-0.380023 z m 0.96207,-3.376997 c -0.0446,-1.23321 -0.10396,-1.770246 -0.24616,-2.227079 -0.10306,-0.3311 -0.21066,-0.718041 -0.23909,-0.859871 -0.0619,-0.308613 -0.3783,-0.348734 -0.77817,-0.09867 -0.50743,0.317336 -1.44941,1.193285 -1.68577,1.567603 -0.27642,0.43776 -0.6264,1.270921 -0.72222,1.719307 -0.0791,0.370118 0.007,0.384581 0.59494,0.09996 0.23268,-0.112638 0.64502,-0.223202 0.91633,-0.245701 0.43897,-0.03641 0.55951,-0.0021 1.09478,0.310961 0.52898,0.309439 0.62667,0.41256 0.81014,0.855217 0.11474,0.276842 0.23233,0.503349 0.26131,0.503349 0.029,0 0.0262,-0.731287 -0.006,-1.625082 z m 16.06423,-2.816432 c 0,-0.07041 0.0844,-0.235302 0.18754,-0.366435 0.25538,-0.324663 0.24017,-0.507726 -0.15409,-1.854765 -0.33761,-1.153454 -0.34175,-1.188258 -0.35103,-2.948895 -0.0121,-2.297772 0.1213,-3.5515323 0.40755,-3.8299178 l 0.20798,-0.2022693 -0.0557,1.0783761 c -0.2044,3.957859 -0.18333,4.329347 0.33244,5.859923 0.29543,0.876736 0.42731,1.710689 0.29742,1.880768 -0.11748,0.15382 -0.65536,0.511227 -0.76938,0.511227 -0.0565,0 -0.10274,-0.05761 -0.10274,-0.128012 z m -8.20503,-0.903478 -0.26952,-0.281315 h 0.47625 c 0.43172,0 0.51973,-0.03908 0.94099,-0.417831 0.2556,-0.229808 0.6294,-0.656816 0.83066,-0.94891 0.30033,-0.4359 0.37431,-0.633947 0.4128,-1.105063 0.0356,-0.436376 0.0842,-0.581076 0.20249,-0.603566 0.12913,-0.02454 0.16666,0.08833 0.22055,0.663425 0.0617,0.658209 0.0505,0.718505 -0.22215,1.200831 -0.26249,0.464312 -1.16999,1.375514 -1.64647,1.653207 -0.33478,0.195102 -0.65716,0.140288 -0.9456,-0.160778 z m 11.25918,-1.095078 c -0.0418,-0.108897 0.0707,-0.290386 0.36505,-0.589295 l 0.42544,-0.431934 V 14.88827 c 0,-0.416963 -0.0632,-1.120045 -0.14026,-1.562407 -0.0973,-0.557924 -0.11236,-0.877649 -0.0492,-1.043773 0.10608,-0.279029 0.42138,-0.322324 0.54895,-0.07538 0.11723,0.226924 0.23627,1.644037 0.24377,2.901864 l 0.006,1.049873 -0.32316,0.333261 c -0.25547,0.263461 -0.39575,0.333262 -0.66981,0.333262 -0.23799,0 -0.36559,-0.04932 -0.40705,-0.15736 z M 369.2866,8.9715845 c -0.44712,-0.6278727 -0.85698,-1.4822586 -1.00089,-2.0864231 -0.0795,-0.3334758 -0.12548,-1.2116811 -0.1303,-2.4849525 -0.008,-2.0972413 -0.0299,-2.2128931 -0.48751,-2.5728886 -0.23265,-0.1830008 -0.26102,-0.1858209 -0.4202,-0.041766 -0.3177,0.2875158 -0.5743,0.9759276 -0.65461,1.7562004 -0.18006,1.7495175 -0.19089,2.2854785 -0.0526,2.6075529 0.16066,0.3743285 1.98953,2.6673722 2.40882,3.0201737 0.16178,0.136135 0.37524,0.2475187 0.47434,0.2475187 0.15852,0 0.14205,-0.053587 -0.13699,-0.4454157 z m 5.09059,-0.3611577 c 0.30757,-0.3910086 0.34134,-0.8110403 0.10453,-1.3002091 -0.11316,-0.2337809 -0.25009,-0.4250563 -0.30427,-0.4250563 -0.0542,0 -0.15176,-0.072815 -0.21683,-0.1618121 -0.0894,-0.122241 -0.28683,-0.1689959 -0.8074,-0.1911873 -0.75534,-0.032199 -1.02807,0.06172 -1.31948,0.4543695 -0.17797,0.2398053 -0.17767,0.2460478 0.0331,0.6798456 0.20646,0.4249666 0.22523,0.4379053 0.63944,0.4408 0.45621,0.00319 0.65931,0.1094466 0.83318,0.4358849 0.10018,0.1881229 0.27798,0.2652036 0.68856,0.2985371 0.0865,0.00703 0.24365,-0.097004 0.34918,-0.2311723 z m 0.82799,-0.01393 c 0.13517,-0.48333 0.0602,-1.6483621 -0.15835,-2.4615097 -0.25399,-0.944883 -0.52819,-1.4586407 -0.99927,-1.8722532 -0.34363,-0.301709 -0.3511,-0.3034052 -1.05852,-0.2401925 -0.49465,0.044201 -0.75139,0.1116574 -0.83983,0.2206649 -0.29505,0.3636375 -0.66953,1.2993442 -0.6696,1.673125 -9e-5,0.6624303 0.0424,0.6944939 0.55732,0.4199398 0.44582,-0.2377282 0.46802,-0.2399503 1.32136,-0.1322392 0.73113,0.092286 0.90942,0.1493166 1.13126,0.361854 0.56276,0.5391519 0.70663,1.3019234 0.36559,1.9382277 l -0.18772,0.3502556 h 0.23282 c 0.17399,0 0.25105,-0.06516 0.30494,-0.2578724 z"
     id="path981" /></svg>
